<svg width="32" height="32" viewBox="0 0 32 32" fill="none" xmlns="http://www.w3.org/2000/svg">
<g clip-path="url(#clip0)">
<path d="M22.7305 16.3919C22.6753 16.2034 22.5337 16.0495 22.3453 15.9806C22.3073 15.9667 21.9993 15.8577 21.5208 15.7877C23.565 13.6125 22.8901 11.0712 22.7305 10.5749C22.6753 10.3863 22.5337 10.2324 22.3453 10.1635C22.2576 10.1314 20.7275 9.5919 18.9843 10.1986C19.0827 9.79478 19.1403 9.35084 19.1403 8.86371C19.1403 5.74703 16.7801 4.37715 16.3065 4.13396C16.1342 4.03959 15.925 4.03096 15.7433 4.11546C15.6261 4.1699 12.8727 5.48759 12.8727 8.86371C12.8727 9.35184 12.9305 9.79671 13.0293 10.2012C11.283 9.5904 9.74885 10.1313 9.66098 10.1635C9.47267 10.2324 9.33098 10.3863 9.2758 10.5749C9.11623 11.0712 8.4413 13.6125 10.4855 15.7877C10.007 15.8577 9.69898 15.9667 9.66098 15.9806C9.47267 16.0495 9.33092 16.2035 9.27573 16.392C9.11286 16.8987 8.41249 19.5364 10.6163 21.7403C11.8917 23.0156 13.3072 23.3199 14.3677 23.3199C14.7603 23.3199 15.1035 23.2781 15.3737 23.2285V27.318C15.3737 27.6631 15.6535 27.943 15.9987 27.943C16.3439 27.943 16.6237 27.6631 16.6237 27.318V23.2269C16.8951 23.2772 17.2417 23.3198 17.6386 23.3198C18.699 23.3198 20.1147 23.0155 21.3899 21.7402C23.5938 19.5363 22.8934 16.8986 22.7305 16.3919ZM15.3737 21.2801C15.3598 21.5638 15.32 21.8023 15.2819 21.9737C14.6139 22.1221 12.9424 22.2985 11.5003 20.8563C10.0799 19.436 10.2287 17.7922 10.386 17.075C10.806 16.9837 11.6257 16.8819 12.5332 17.1764C12.593 17.1988 12.6525 17.2199 12.7118 17.2396C13.1924 17.4218 13.6914 17.7193 14.1643 18.1922C15.0655 19.0934 15.3346 20.084 15.3737 20.8631V21.2801ZM15.3737 15.4632C15.3598 15.7469 15.32 15.9853 15.2819 16.1567C14.868 16.2488 14.0689 16.351 13.1778 16.0728C13.0875 16.038 12.9977 16.0063 12.9085 15.9777C12.4424 15.7935 11.9597 15.4988 11.5002 15.0393C10.0799 13.619 10.2287 11.9752 10.386 11.258C11.0534 11.1129 12.7296 10.9405 14.1643 12.3753C14.1735 12.3844 14.1817 12.3936 14.1906 12.4027C14.2455 12.4642 14.3005 12.523 14.3554 12.5795C15.1034 13.4239 15.3376 14.3255 15.3737 15.0462V15.4632ZM16.0075 12.3273C15.8116 12.2017 15.5294 11.9947 15.2427 11.6953C15.2134 11.6633 15.1839 11.6312 15.1535 11.5993C14.6313 11.0192 14.1226 10.1294 14.1226 8.86371C14.1226 6.8264 15.4264 5.76934 16.0033 5.40134C16.6212 5.79671 17.8902 6.85378 17.8902 8.86371C17.8902 10.0581 17.4421 10.9151 16.9551 11.4943C16.8538 11.5957 16.7591 11.6981 16.6697 11.801C16.4199 12.0439 16.1806 12.2171 16.0075 12.3273ZM16.6276 15.2607C16.6267 14.5269 16.8165 13.5559 17.5936 12.644C17.6857 12.5525 17.7782 12.4541 17.87 12.3483C19.3042 10.9376 20.9562 11.1099 21.62 11.2568C21.7773 11.9733 21.9272 13.6182 20.506 15.0393C20.0474 15.498 19.5656 15.7925 19.1003 15.9768C19.0096 16.0059 18.9183 16.0381 18.8264 16.0735C17.9355 16.3512 17.1369 16.2487 16.7246 16.1569C16.6783 15.9486 16.6293 15.6427 16.6275 15.2766C16.6275 15.2713 16.6276 15.266 16.6276 15.2607ZM20.506 20.8563C19.0636 22.2988 17.3921 22.1221 16.7256 21.9742C16.5803 21.3093 16.4046 19.6296 17.8419 18.1922C18.3018 17.7323 18.7849 17.4375 19.2514 17.2534C19.3404 17.2248 19.4299 17.1933 19.52 17.1585C20.4091 16.881 21.2064 16.9823 21.62 17.0737C21.7773 17.7903 21.9272 19.4352 20.506 20.8563Z" fill="#F8FCFF"/>
<path d="M19.3347 0.348188C18.2453 0.117188 17.1233 0 16 0C11.7262 0 7.70831 1.66425 4.68631 4.68631C1.66431 7.70831 0 11.7263 0 16C0 19.5611 1.19813 23.0373 3.381 25.8363C3.13544 26.2162 3.00325 26.6587 3.00325 27.1218C3.00325 27.7562 3.25031 28.3526 3.69887 28.8012C4.14744 29.2498 4.74388 29.4968 5.37825 29.4968C6.01263 29.4968 6.60906 29.2498 7.05762 28.8012C7.50625 28.3526 7.75325 27.7562 7.75325 27.1218C7.75325 26.4874 7.50619 25.8911 7.05762 25.4424C6.60906 24.9938 6.01263 24.7468 5.37825 24.7468C5.00225 24.7468 4.63981 24.8342 4.31337 24.9983C2.33512 22.4303 1.25 19.2538 1.25 16C1.25 7.86681 7.86681 1.25 16 1.25C17.0364 1.25 18.0711 1.358 19.0754 1.571C19.4133 1.64256 19.7449 1.42688 19.8165 1.08925C19.8881 0.751563 19.6724 0.419813 19.3347 0.348188ZM4.58275 26.3263C4.80206 26.1069 5.09013 25.9973 5.37825 25.9973C5.66638 25.9973 5.95444 26.1069 6.17375 26.3263C6.38625 26.5387 6.50325 26.8213 6.50325 27.1218C6.50325 27.4223 6.38625 27.7048 6.17375 27.9173C5.73513 28.356 5.02137 28.3559 4.58275 27.9173C4.37025 27.7048 4.25325 27.4223 4.25325 27.1218C4.25325 26.8213 4.37025 26.5388 4.58275 26.3263Z" fill="#F8FCFF"/>
<path d="M28.6154 6.16565C28.8609 5.78577 28.9931 5.34327 28.9931 4.88015C28.9931 4.24577 28.746 3.64934 28.2975 3.20077C27.8489 2.75215 27.2525 2.50515 26.6181 2.50515C25.9838 2.50515 25.3873 2.75221 24.9388 3.20077C24.4902 3.64934 24.2431 4.24577 24.2431 4.88015C24.2431 5.51452 24.4902 6.11096 24.9388 6.55952C25.3873 7.00815 25.9838 7.25515 26.6181 7.25515C26.9942 7.25515 27.3566 7.16771 27.6831 7.00359C29.6612 9.57165 30.7463 12.7481 30.7463 16.002C30.7463 24.1351 24.1296 30.752 15.9965 30.752C15.1215 30.752 14.2449 30.6748 13.391 30.5226C13.0514 30.4622 12.7266 30.6884 12.6661 31.0283C12.6055 31.3681 12.8319 31.6927 13.1717 31.7533C14.0979 31.9183 15.0482 32.002 15.9965 32.002C20.2702 32.002 24.2881 30.3376 27.3101 27.3157C30.3322 24.2938 31.9963 20.2757 31.9963 16.002C31.9963 12.4408 30.7982 8.96465 28.6154 6.16565ZM27.4137 5.67565C27.2012 5.88815 26.9187 6.00515 26.6182 6.00515C26.3177 6.00515 26.0351 5.88821 25.8227 5.67565C25.384 5.23702 25.384 4.52334 25.8227 4.08465C26.0351 3.87215 26.3177 3.75515 26.6182 3.75515C26.9187 3.75515 27.2012 3.87215 27.4137 4.08465C27.6262 4.29709 27.7432 4.57965 27.7432 4.88015C27.7432 5.18065 27.6262 5.46315 27.4137 5.67565Z" fill="#F8FCFF"/>
<path d="M10.5067 29.6922L10.2707 30.271L10.5049 29.6915C10.1847 29.5623 9.8206 29.7167 9.69123 30.0367C9.56186 30.3567 9.71642 30.721 10.0364 30.8505L10.0557 30.8581C10.1294 30.8863 10.2053 30.8997 10.2799 30.8997C10.5317 30.8997 10.7696 30.7473 10.8648 30.4987C10.9883 30.1763 10.829 29.8156 10.5067 29.6922Z" fill="#F8FCFF"/>
<path d="M21.9827 1.15859L21.9715 1.15415C21.6511 1.0259 21.2874 1.18184 21.1591 1.50234C21.0309 1.82284 21.1868 2.18646 21.5073 2.31471L21.5144 2.31759C21.5912 2.34859 21.6704 2.36321 21.7484 2.36321C21.9956 2.36321 22.2297 2.21553 22.328 1.97221C22.4573 1.65215 22.3027 1.2879 21.9827 1.15859Z" fill="#F8FCFF"/>
</g>
<defs>
<clipPath id="clip0">
<rect width="32" height="32" fill="white"/>
</clipPath>
</defs>
</svg>
