<svg width="32" height="32" viewBox="0 0 32 32" fill="none" xmlns="http://www.w3.org/2000/svg">
<g clip-path="url(#clip0)">
<path d="M6.15625 7.625H8.65624C9.00121 7.625 9.28124 7.34521 9.28124 7V4C9.28124 3.65479 9.00121 3.375 8.65624 3.375H6.15625C5.81103 3.375 5.53125 3.65479 5.53125 4V7C5.53125 7.34521 5.81103 7.625 6.15625 7.625ZM6.78125 4.625H8.03124V6.375H6.78125V4.625Z" fill="#F8FCFF"/>
<path d="M11.1563 7.625H13.6563C14.0012 7.625 14.2813 7.34521 14.2813 7V4C14.2813 3.65479 14.0012 3.375 13.6563 3.375H11.1563C10.811 3.375 10.5312 3.65479 10.5312 4V7C10.5312 7.34521 10.811 7.625 11.1563 7.625ZM11.7813 4.625H13.0313V6.375H11.7813V4.625Z" fill="#F8FCFF"/>
<path d="M16.1562 7.625H18.6562C19.0012 7.625 19.2812 7.34521 19.2812 7V4C19.2812 3.65479 19.0012 3.375 18.6562 3.375H16.1562C15.811 3.375 15.5312 3.65479 15.5312 4V7C15.5312 7.34521 15.811 7.625 16.1562 7.625ZM16.7812 4.625H18.0312V6.375H16.7812V4.625Z" fill="#F8FCFF"/>
<path d="M5.53125 12.5C5.53125 12.8452 5.81103 13.125 6.15625 13.125H8.65624C9.00121 13.125 9.28124 12.8452 9.28124 12.5V9.5C9.28124 9.15479 9.00121 8.875 8.65624 8.875H6.15625C5.81103 8.875 5.53125 9.15479 5.53125 9.5V12.5ZM6.78125 10.125H8.03124V11.875H6.78125V10.125Z" fill="#F8FCFF"/>
<path d="M10.5312 12.5C10.5312 12.8452 10.811 13.125 11.1563 13.125H13.6563C14.0012 13.125 14.2813 12.8452 14.2813 12.5V9.5C14.2813 9.15479 14.0012 8.875 13.6563 8.875H11.1563C10.811 8.875 10.5312 9.15479 10.5312 9.5V12.5ZM11.7813 10.125H13.0313V11.875H11.7813V10.125Z" fill="#F8FCFF"/>
<path d="M5.53125 18C5.53125 18.3452 5.81103 18.625 6.15625 18.625H8.65624C9.00121 18.625 9.28124 18.3452 9.28124 18V15C9.28124 14.6548 9.00121 14.375 8.65624 14.375H6.15625C5.81103 14.375 5.53125 14.6548 5.53125 15V18ZM6.78125 15.625H8.03124V17.375H6.78125V15.625Z" fill="#F8FCFF"/>
<path d="M10.5312 18C10.5312 18.3452 10.811 18.625 11.1563 18.625H13.6563C14.0012 18.625 14.2813 18.3452 14.2813 18V15C14.2813 14.6548 14.0012 14.375 13.6563 14.375H11.1563C10.811 14.375 10.5312 14.6548 10.5312 15V18ZM11.7813 15.625H13.0313V17.375H11.7813V15.625Z" fill="#F8FCFF"/>
<path d="M28 28.25C27.6509 28.25 27.304 28.3088 26.9758 28.4224C26.3137 27.7234 25.4485 27.2761 24.5 27.1392V24.417C25.3049 25.0356 26.3027 25.3904 27.3416 25.3904C29.9102 25.3904 32 23.3005 32 20.7319C32 19.1013 31.1323 17.585 29.7546 16.7473C29.7852 16.5024 29.8005 16.2549 29.8005 16.0078C29.8005 12.7405 27.1423 10.0823 23.875 10.0823C23.2991 10.0823 22.7424 10.165 22.2156 10.3191V0.625C22.2156 0.279785 21.9358 0 21.5906 0H3.09058C2.74561 0 2.46558 0.279785 2.46558 0.625V12C2.46558 12.3452 2.74561 12.625 3.09058 12.625C3.43579 12.625 3.71558 12.3452 3.71558 12V1.25H20.9656V10.8472C20.3206 11.2124 19.7502 11.6948 19.2839 12.2659V9.5C19.2839 9.15479 19.0042 8.875 18.6589 8.875H16.1589C15.814 8.875 15.5339 9.15479 15.5339 9.5V12.5C15.5339 12.8452 15.814 13.125 16.1589 13.125H18.6589C18.6731 13.125 18.687 13.1238 18.7007 13.1228C18.4812 13.5151 18.3047 13.9346 18.1782 14.375H16.1589C15.814 14.375 15.5339 14.6548 15.5339 15V18C15.5339 18.3452 15.814 18.625 16.1589 18.625H16.2583C15.9468 19.2371 15.7681 19.9189 15.7517 20.625H7.25C6.90479 20.625 6.625 20.9048 6.625 21.25V27.75H3.71582V17C3.71582 16.6548 3.43579 16.375 3.09082 16.375C2.74561 16.375 2.46582 16.6548 2.46582 17V27.75H0.625C0.279785 27.75 0 28.0298 0 28.375V31.375C0 31.7202 0.279785 32 0.625 32H30.5C30.845 32 31.125 31.7202 31.125 31.375C31.125 29.6519 29.7231 28.25 28 28.25ZM18.0342 11.875H16.7842V10.125H18.0342V11.875ZM16.625 23.4446V27.75H12.875V21.875H15.8923C16.0374 22.4478 16.2896 22.978 16.625 23.4446ZM17.875 24.6382C18.6047 25.113 19.4746 25.3904 20.4084 25.3904C20.5959 25.3904 20.7817 25.3777 20.9658 25.355V27.75H17.875V24.6382ZM22.2158 25.0203C22.5845 24.864 22.9321 24.6614 23.25 24.417V27.1396C22.8887 27.1929 22.542 27.2908 22.2158 27.4285V25.0203ZM23.875 11.3323C26.4531 11.3323 28.5505 13.4297 28.5505 16.0078C28.5505 16.3276 28.5181 16.6475 28.4539 16.9587C28.3953 17.2412 28.5378 17.5266 28.7983 17.6501C29.9839 18.2117 30.75 19.4214 30.75 20.7319C30.75 22.6113 29.2209 24.1404 27.3416 24.1404C26.2021 24.1404 25.1284 23.5588 24.5 22.6128V20.9429L26.8027 18.6401C27.0469 18.396 27.0469 18.0002 26.8027 17.7561C26.5586 17.5122 26.1631 17.5122 25.9189 17.7561L24.5 19.175V16.3C24.5 15.9548 24.2202 15.675 23.875 15.675C23.53 15.675 23.25 15.9548 23.25 16.3V17.8198L22.1836 16.7534C21.9395 16.5093 21.5439 16.5093 21.2998 16.7534C21.0557 16.9976 21.0557 17.3933 21.2998 17.6375L23.25 19.5876V20.6836V20.6843V22.6128C22.6216 23.5588 21.5479 24.1404 20.4084 24.1404C18.5291 24.1404 17 22.6113 17 20.7319C17 19.4214 17.7661 18.2117 18.9517 17.6501C19.2122 17.5266 19.3545 17.2412 19.2964 16.9587C19.2322 16.6477 19.1995 16.3276 19.1995 16.0078C19.1995 13.4297 21.2969 11.3323 23.875 11.3323ZM16.7842 15.625H17.9622C17.9541 15.7517 17.9495 15.8792 17.9495 16.0078C17.9495 16.2551 17.9648 16.5024 17.9954 16.7473C17.6997 16.927 17.4277 17.1382 17.1826 17.375H16.7842V15.625ZM7.875 21.875H11.625V27.75H7.875V21.875ZM1.25 29H20.3149C19.9697 29.5156 19.7339 30.1099 19.6399 30.75H1.25V29ZM23.875 30.75H20.9084C21.1975 29.3774 22.4177 28.3438 23.875 28.3438C24.8374 28.3438 25.7214 28.7859 26.3003 29.5566C26.4871 29.8052 26.8281 29.8789 27.1006 29.7295C27.3745 29.5793 27.6855 29.5 28 29.5C28.8147 29.5 29.51 30.0225 29.7678 30.75H23.875Z" fill="#F8FCFF"/>
<path d="M3.09277 15.125C3.25708 15.125 3.41846 15.0581 3.53467 14.9419C3.65088 14.8257 3.71778 14.6643 3.71778 14.5C3.71778 14.3357 3.65088 14.1743 3.53467 14.0581C3.41846 13.9419 3.25708 13.875 3.09277 13.875C2.92847 13.875 2.76709 13.9419 2.65088 14.0581C2.53467 14.1743 2.46777 14.3357 2.46777 14.5C2.46777 14.6643 2.53467 14.8257 2.65088 14.9419C2.76733 15.0581 2.92847 15.125 3.09277 15.125Z" fill="#F8FCFF"/>
</g>
<defs>
<clipPath id="clip0">
<rect width="32" height="32" fill="white"/>
</clipPath>
</defs>
</svg>
