<svg width="32" height="32" viewBox="0 0 32 32" fill="none" xmlns="http://www.w3.org/2000/svg">
<path d="M32 0H0V32H32V0Z" fill="#01A3B2"/>
<path d="M11.5088 21.6948C10.7666 20.9625 10.3042 19.9983 10.2006 18.9666C10.097 17.935 10.3585 16.8997 10.9405 16.0373C11.5226 15.175 12.3891 14.5389 13.3925 14.2377C14.3958 13.9364 15.4737 13.9885 16.4425 14.3852C17.4112 14.7819 18.2109 15.4985 18.705 16.4129C19.1992 17.3273 19.3572 18.3829 19.1522 19.3996C18.9472 20.4163 18.3919 21.3313 17.5809 21.9885C16.77 22.6457 15.7535 23.0044 14.705 23.0035C13.5065 23.0024 12.3572 22.5318 11.5088 21.6948ZM10.5026 14.3718C9.54154 15.3221 8.94029 16.5703 8.7998 17.907V19.1527C8.9358 20.446 9.5032 21.6578 10.4126 22.5971C11.3219 23.5364 12.5216 24.1498 13.8224 24.3407C14.115 24.3769 14.4095 24.3967 14.7044 24.4C14.9993 24.3967 15.2938 24.3769 15.5864 24.3407C16.8445 24.1587 18.0092 23.5788 18.9062 22.6879C19.8824 21.7198 20.4874 20.446 20.6174 19.085C20.7475 17.7241 20.3945 16.3608 19.619 15.2291L19.9982 14.8541C20.0688 14.784 20.1084 14.6891 20.1084 14.5901C20.1084 14.4912 20.0688 14.3963 19.9982 14.3262L18.9614 13.3004C18.8905 13.2306 18.7945 13.1915 18.6944 13.1915C18.5944 13.1915 18.4984 13.2306 18.4274 13.3004L18.0482 13.6754C16.9044 12.9068 15.5257 12.5561 14.1489 12.6831C12.772 12.8102 11.4828 13.4073 10.5026 14.3718ZM18.9458 11.9395L18.7832 12.1923C18.7312 12.2771 18.7127 12.3779 18.7314 12.4753C18.7499 12.5728 18.8043 12.66 18.884 12.7203C19.2078 12.9521 19.5156 13.2051 19.805 13.4778C20.0808 13.764 20.3368 14.0683 20.5712 14.3884C20.6302 14.4697 20.7186 14.5254 20.818 14.544C20.9175 14.5626 21.0203 14.5426 21.1052 14.4881L21.3686 14.3196C21.4096 14.2937 21.4449 14.2599 21.4723 14.2202C21.4997 14.1805 21.5187 14.1357 21.5281 14.0885C21.5375 14.0413 21.5372 13.9927 21.5271 13.9457C21.517 13.8986 21.4974 13.8541 21.4694 13.8148C21.1916 13.4314 20.8864 13.0682 20.5562 12.7279C20.2097 12.4035 19.8423 12.1015 19.4564 11.8239C19.3962 11.7788 19.3231 11.7539 19.2476 11.7527C19.1872 11.7602 19.1291 11.7806 19.0773 11.8123C19.0256 11.844 18.9813 11.8864 18.9476 11.9366L18.9458 11.9395ZM20 10.3069L19.5974 10.9346C19.5454 11.0194 19.527 11.1202 19.5455 11.2177C19.5642 11.3151 19.6185 11.4023 19.6982 11.4626C20.1129 11.7561 20.5061 12.0782 20.8748 12.4266C21.2241 12.794 21.5492 13.1831 21.848 13.5917C21.907 13.673 21.9954 13.7287 22.0948 13.7473C22.1943 13.7658 22.2971 13.7458 22.382 13.6914L23.0168 13.2951C23.0701 13.259 23.1149 13.2121 23.1482 13.1575C23.1792 13.1125 23.197 13.0599 23.1998 13.0056C23.1907 12.9297 23.1622 12.8575 23.117 12.7956C22.7558 12.2992 22.3626 11.8264 21.9398 11.3801C21.4884 10.9623 21.0102 10.5737 20.5082 10.2167C20.4477 10.1726 20.3746 10.1485 20.2994 10.1479C20.2395 10.1461 20.1801 10.16 20.1274 10.1882C20.0747 10.2165 20.0305 10.258 19.9994 10.3087L20 10.3069ZM16.1054 7.97488L15.9428 8.41092C15.8781 8.5845 15.7762 8.74216 15.6439 8.87294C15.5116 9.00373 15.3522 9.10458 15.1766 9.1685L14.7356 9.32927C14.7276 9.3325 14.7206 9.33767 14.7151 9.34434C14.7097 9.35096 14.706 9.35884 14.7044 9.36725C14.7045 9.37614 14.7076 9.38474 14.7133 9.39165C14.719 9.39852 14.7268 9.40333 14.7356 9.40523L15.1766 9.56599C15.3522 9.62991 15.5116 9.73072 15.6439 9.86155C15.7762 9.99234 15.8781 10.15 15.9428 10.3235L16.1054 10.7596C16.1087 10.7675 16.1139 10.7744 16.1206 10.7799C16.1273 10.7852 16.1353 10.7889 16.1438 10.7904C16.1528 10.7904 16.1615 10.7873 16.1685 10.7817C16.1754 10.7761 16.1803 10.7683 16.1822 10.7596L16.3448 10.3235C16.4095 10.15 16.5114 9.99234 16.6437 9.86155C16.776 9.73072 16.9354 9.62991 17.111 9.56599L17.552 9.40523C17.56 9.40195 17.567 9.39678 17.5725 9.39016C17.5779 9.38353 17.5816 9.37565 17.5832 9.36725C17.5831 9.35836 17.58 9.34975 17.5744 9.34284C17.5687 9.33593 17.5608 9.33117 17.552 9.32927L17.111 9.1685C16.9354 9.10458 16.776 9.00373 16.6437 8.87294C16.5114 8.74216 16.4095 8.5845 16.3448 8.41092L16.1828 7.97488C16.1809 7.96616 16.176 7.95832 16.169 7.95274C16.1619 7.94713 16.1531 7.94406 16.1441 7.94406C16.1351 7.94406 16.1263 7.94713 16.1192 7.95274C16.1122 7.95832 16.1073 7.96616 16.1054 7.97488ZM18.2876 8.31897C18.2876 8.46115 18.3302 8.60014 18.4101 8.7184C18.49 8.83662 18.6035 8.92878 18.7364 8.98321C18.8692 9.03763 19.0154 9.05193 19.1565 9.02422C19.2975 8.99654 19.4271 8.9281 19.5288 8.82761C19.6305 8.72713 19.6998 8.59905 19.728 8.45961C19.7561 8.32018 19.7418 8.17565 19.6868 8.04426C19.6319 7.91286 19.5388 7.8005 19.4192 7.72143C19.2997 7.64236 19.1592 7.6001 19.0154 7.59998C18.9199 7.5999 18.8253 7.61844 18.737 7.65456C18.6488 7.69064 18.5686 7.74361 18.501 7.8104C18.4335 7.87719 18.3799 7.95646 18.3434 8.04373C18.3069 8.13101 18.2881 8.22454 18.2882 8.31897" fill="white"/>
</svg>
