<svg width="260" height="42" viewBox="0 0 260 42" fill="none" xmlns="http://www.w3.org/2000/svg">
<g clip-path="url(#clip0)">
<path d="M41.6635 0H0V41.6635H41.6635V0Z" fill="#01A3B2"/>
<path d="M14.9841 28.2467C14.0178 27.2933 13.4158 26.0379 13.2809 24.6947C13.1459 23.3515 13.4864 22.0036 14.2442 20.8808C15.0021 19.758 16.1303 18.9299 17.4366 18.5377C18.7429 18.1454 20.1463 18.2133 21.4077 18.7297C22.669 19.2462 23.7101 20.1792 24.3535 21.3698C24.9968 22.5603 25.2026 23.9347 24.9357 25.2584C24.6688 26.5822 23.9458 27.7735 22.8899 28.6291C21.8341 29.4848 20.5107 29.9518 19.1455 29.9506C17.585 29.9492 16.0887 29.3365 14.9841 28.2467ZM13.674 18.7123C12.4228 19.9495 11.6399 21.5747 11.457 23.315V24.937C11.6341 26.6208 12.3728 28.1986 13.5568 29.4215C14.7408 30.6445 16.3027 31.4431 17.9964 31.6916C18.3774 31.7388 18.7608 31.7645 19.1447 31.7688C19.5287 31.7645 19.9121 31.7388 20.2931 31.6916C21.9311 31.4547 23.4475 30.6997 24.6154 29.5397C25.8863 28.2792 26.674 26.6208 26.8434 24.8488C27.0127 23.0769 26.5532 21.3019 25.5434 19.8284L26.0371 19.3403C26.129 19.2489 26.1806 19.1254 26.1806 18.9965C26.1806 18.8678 26.129 18.7442 26.0371 18.6529L24.6873 17.3174C24.5949 17.2265 24.4699 17.1756 24.3396 17.1756C24.2094 17.1756 24.0844 17.2265 23.992 17.3174L23.4983 17.8056C22.0091 16.805 20.2141 16.3482 18.4214 16.5137C16.6287 16.6792 14.9502 17.4565 13.674 18.7123ZM24.6669 15.5455L24.4552 15.8746C24.3875 15.985 24.3635 16.1162 24.3878 16.2431C24.412 16.37 24.4828 16.4836 24.5865 16.562C25.0081 16.8638 25.4088 17.1933 25.7856 17.5483C26.1447 17.921 26.478 18.3171 26.7832 18.7339C26.86 18.8398 26.9751 18.9123 27.1046 18.9365C27.234 18.9607 27.3679 18.9346 27.4785 18.8637L27.8214 18.6444C27.8748 18.6107 27.9207 18.5667 27.9564 18.5149C27.9921 18.4632 28.0168 18.4049 28.0291 18.3435C28.0414 18.282 28.0409 18.2188 28.0278 18.1575C28.0146 18.0963 27.9891 18.0383 27.9527 17.9871C27.5909 17.488 27.1936 17.0151 26.7637 16.572C26.3125 16.1497 25.8341 15.7564 25.3318 15.3949C25.2533 15.3363 25.1582 15.3039 25.0599 15.3022C24.9812 15.3121 24.9056 15.3386 24.8382 15.3799C24.7708 15.4212 24.7132 15.4764 24.6693 15.5417L24.6669 15.5455ZM26.0395 13.4199L25.5153 14.2371C25.4476 14.3475 25.4236 14.4788 25.4478 14.6057C25.4721 14.7326 25.5428 14.8461 25.6465 14.9245C26.1865 15.3067 26.6984 15.7261 27.1785 16.1797C27.6332 16.658 28.0565 17.1647 28.4456 17.6966C28.5224 17.8025 28.6374 17.8751 28.7669 17.8992C28.8964 17.9233 29.0303 17.8973 29.1408 17.8264L29.9673 17.3104C30.0367 17.2635 30.095 17.2024 30.1384 17.1313C30.1787 17.0727 30.202 17.0043 30.2056 16.9335C30.1937 16.8348 30.1566 16.7407 30.0978 16.6601C29.6275 16.0138 29.1156 15.3982 28.5651 14.8172C27.9774 14.2732 27.3548 13.7673 26.7012 13.3025C26.6224 13.245 26.5272 13.2137 26.4293 13.2129C26.3513 13.2105 26.274 13.2286 26.2054 13.2654C26.1368 13.3021 26.0792 13.3563 26.0387 13.4222L26.0395 13.4199ZM20.9688 10.3836L20.7571 10.9513C20.6729 11.1773 20.5401 11.3826 20.3679 11.5529C20.1957 11.7232 19.9881 11.8545 19.7595 11.9377L19.1853 12.147C19.1749 12.1512 19.1658 12.158 19.1587 12.1666C19.1516 12.1753 19.1468 12.1855 19.1447 12.1965C19.1448 12.208 19.1489 12.2192 19.1563 12.2282C19.1637 12.2372 19.1739 12.2434 19.1853 12.2459L19.7595 12.4552C19.9881 12.5385 20.1957 12.6697 20.3679 12.84C20.5401 13.0103 20.6729 13.2155 20.7571 13.4415L20.9688 14.0092C20.9731 14.0196 20.9799 14.0286 20.9886 14.0357C20.9973 14.0427 21.0078 14.0474 21.0188 14.0494C21.0305 14.0493 21.0418 14.0453 21.0509 14.038C21.06 14.0307 21.0663 14.0206 21.0688 14.0092L21.2805 13.4415C21.3647 13.2155 21.4975 13.0103 21.6697 12.84C21.8419 12.6697 22.0495 12.5385 22.2781 12.4552L22.8523 12.2459C22.8627 12.2417 22.8718 12.2349 22.8789 12.2263C22.886 12.2177 22.8908 12.2074 22.8929 12.1965C22.8928 12.1849 22.8887 12.1737 22.8813 12.1647C22.8739 12.1557 22.8637 12.1495 22.8523 12.147L22.2781 11.9377C22.0495 11.8545 21.8419 11.7232 21.6697 11.5529C21.4975 11.3826 21.3647 11.1773 21.2805 10.9513L21.0696 10.3836C21.0671 10.3723 21.0607 10.3621 21.0516 10.3548C21.0424 10.3475 21.031 10.3435 21.0192 10.3435C21.0074 10.3435 20.996 10.3475 20.9868 10.3548C20.9777 10.3621 20.9713 10.3723 20.9688 10.3836ZM23.81 10.8316C23.81 11.0167 23.8655 11.1977 23.9695 11.3517C24.0735 11.5056 24.2213 11.6256 24.3943 11.6965C24.5672 11.7673 24.7576 11.7859 24.9412 11.7498C25.1249 11.7138 25.2936 11.6247 25.426 11.4939C25.5584 11.363 25.6487 11.1963 25.6853 11.0147C25.7219 10.8332 25.7033 10.645 25.6318 10.474C25.5602 10.3029 25.439 10.1566 25.2834 10.0536C25.1278 9.95069 24.9448 9.89567 24.7576 9.89551C24.6332 9.8954 24.5101 9.91955 24.3951 9.96658C24.2802 10.0136 24.1758 10.0825 24.0879 10.1695C23.9999 10.2564 23.9302 10.3596 23.8826 10.4733C23.8351 10.5869 23.8107 10.7087 23.8108 10.8316" fill="white"/>
</g>
<path fill-rule="evenodd" clip-rule="evenodd" d="M87.5629 4.84748C87.5132 4.92478 87.456 9.80193 87.4359 15.686C87.3955 27.3882 87.4399 28.6001 87.9359 29.3307C88.0811 29.5451 88.2008 29.7615 88.2008 29.812C88.2008 29.9477 89.4678 31.1442 89.6123 31.1448C89.6802 31.1455 89.9726 31.2712 90.2623 31.4258C91.0776 31.8587 93.9873 31.8506 94.8826 31.4124C95.5938 31.0649 95.5837 31.1314 95.2086 29.2514C94.882 27.6113 94.8477 27.5609 94.0855 27.5609C93.4247 27.5609 92.8595 27.325 92.6531 26.964C92.5449 26.7752 92.5073 24.2969 92.4857 15.9663C92.4649 8.03215 92.4232 5.14525 92.3264 4.95973C92.1698 4.65726 87.7531 4.55375 87.5629 4.84748ZM58.3457 8.40721C58.1609 8.45762 57.4309 8.65725 56.7238 8.85016C54.6609 9.41275 54.7752 9.26891 54.6475 11.4588C54.5554 13.0384 54.5964 12.9973 53.0881 12.9973C51.5502 12.9973 51.5684 12.9718 51.5684 15.1624C51.5684 17.3327 51.5643 17.3274 53.1184 17.3838C54.7154 17.4423 54.5931 17.0135 54.5931 22.548C54.5931 28.6727 54.7665 29.3105 56.877 30.9244C57.1163 31.1079 57.3691 31.2578 57.4383 31.2578C57.5082 31.2578 57.7529 31.3586 57.9827 31.4816C58.589 31.8062 62.0318 31.8163 62.8505 31.4957C63.1456 31.3801 63.5636 31.249 63.7787 31.2047C65.32 30.8881 65.7609 30.1729 65.1539 28.9745C65.0639 28.797 64.9153 28.3937 64.8226 28.0785C64.7305 27.7626 64.5309 27.3734 64.3803 27.2134L64.1054 26.9224L63.0178 27.1993C61.0639 27.6974 60.4986 27.6046 59.858 26.6777L59.5778 26.2724L59.5462 22.0983L59.5139 17.9242L59.7928 17.6453C60.0691 17.3697 60.0933 17.3664 62.0237 17.3664C64.5685 17.3664 64.6404 17.3509 64.7984 16.7641C64.9368 16.2499 64.8958 13.2931 64.748 13.1446C64.6976 13.0941 63.5818 13.037 62.2677 13.0175C59.2733 12.9725 59.5475 13.2165 59.5011 10.5561C59.4601 8.15246 59.4366 8.10877 58.3457 8.40721ZM252.374 8.3689C252.251 8.39713 251.948 8.48652 251.702 8.56853C251.456 8.65053 250.75 8.85621 250.133 9.02559C248.671 9.42888 248.743 9.3294 248.663 11.0421C248.571 13.0088 248.579 12.9967 247.19 12.9987C245.446 13.0014 245.596 12.8058 245.596 15.0689C245.596 17.3946 245.53 17.287 247.031 17.3664C248.676 17.4531 248.551 17.0215 248.632 22.8915C248.7 27.8916 248.747 28.4139 249.195 29.1956C249.481 29.6943 250.927 31.1455 251.137 31.1455C251.214 31.1455 251.513 31.2719 251.803 31.4258C252.521 31.8069 256.032 31.8553 256.833 31.4944C257.092 31.3774 257.53 31.2463 257.807 31.202C258.084 31.1576 258.387 31.0575 258.48 30.9788C258.572 30.9008 258.836 30.7704 259.068 30.6884C259.538 30.5224 259.665 29.8765 259.316 29.4154C259.226 29.2964 259.151 29.1196 259.15 29.0235C259.15 28.9274 259.025 28.5967 258.874 28.2889C258.723 27.981 258.597 27.6416 258.595 27.5354C258.586 27.042 258.098 26.9459 256.988 27.2195C255.431 27.6026 255.225 27.6127 254.583 27.3364C253.969 27.0723 253.938 27.0286 253.711 26.1044C253.458 25.0807 253.487 18.3329 253.747 17.8147L253.943 17.4221L256.151 17.3664C258.974 17.2951 258.76 17.4773 258.76 15.1395C258.76 12.8018 258.995 12.9973 256.183 12.9973C253.368 12.9973 253.623 13.2245 253.551 10.6448C253.483 8.24724 253.422 8.13095 252.374 8.3689ZM105.774 12.6747C105.303 12.713 104.858 12.7809 104.785 12.8266C104.712 12.8717 104.298 12.953 103.864 13.0074C103.426 13.0619 102.913 13.2071 102.711 13.3321C102.51 13.4558 102.271 13.5573 102.18 13.5573C102.089 13.5573 101.868 13.6836 101.689 13.8375C101.51 13.9915 101.3 14.1172 101.223 14.1172C101.145 14.1178 100.972 14.2435 100.839 14.3974C100.705 14.552 100.529 14.6777 100.447 14.6777C100.366 14.6777 100.3 14.716 100.3 14.7631C100.3 14.8101 100.121 15.0494 99.9016 15.2948C99.3236 15.9447 98.7724 16.8233 98.5728 17.4107C98.4767 17.693 98.3489 18.013 98.2891 18.1212C97.789 19.0246 97.4516 22.503 97.7138 24.0449C97.8825 25.0383 98.1567 26.2106 98.2878 26.4962C98.3436 26.6199 98.4693 26.9627 98.5667 27.2584C99.0668 28.7782 101.648 31.2578 102.73 31.2578C102.817 31.2578 103.117 31.3619 103.397 31.489C104.003 31.7659 108.616 31.7854 108.944 31.5125C109.035 31.4372 109.382 31.3183 109.717 31.2484C110.052 31.1778 110.401 31.0588 110.493 30.9835C110.586 30.9082 110.838 30.7772 111.054 30.6918C112.806 30.0015 113.224 29.1022 112.308 27.9884C112.162 27.8116 112.01 27.5522 111.55 26.7032C111.281 26.2058 110.157 25.894 110.157 26.3168C110.157 26.3571 109.968 26.4868 109.737 26.6058C109.507 26.7241 109.242 26.8787 109.149 26.9486C108.933 27.1126 107.174 27.5643 106.758 27.5623C105.594 27.5569 103.789 26.4377 103.592 25.6002C103.548 25.4154 103.437 25.1479 103.345 25.0054C102.965 24.4186 104.015 24.1887 105.23 24.5927C106.269 24.9375 109.097 24.6626 110.046 24.1242C110.2 24.0368 110.465 23.9125 110.634 23.8473C110.803 23.7827 110.942 23.696 110.942 23.6544C110.942 23.6127 111.109 23.4883 111.314 23.3781C111.519 23.2679 111.758 23.0703 111.846 22.9392C111.934 22.8081 112.115 22.587 112.248 22.4472C112.38 22.308 112.547 22.0197 112.617 21.8059C112.688 21.5922 112.818 21.3563 112.908 21.2823C112.997 21.2084 113.07 21.0034 113.07 20.8273C113.07 20.6512 113.13 20.1578 113.204 19.7303C113.374 18.7362 113.167 17.0209 112.776 16.1793C112.63 15.8654 112.51 15.5522 112.51 15.483C112.51 15.4144 112.409 15.3035 112.286 15.2376C112.163 15.1718 112.062 15.0676 112.062 15.0064C112.062 14.8659 111.322 14.1178 111.183 14.1178C111.127 14.1178 111.02 14.0432 110.944 13.9525C110.688 13.6433 109.447 13.1076 108.718 12.9913C108.318 12.9274 107.937 12.8407 107.87 12.7997C107.652 12.664 106.646 12.6041 105.774 12.6747ZM123.096 12.6579C122.727 12.7009 122.248 12.7903 122.032 12.8569C121.817 12.9234 121.368 13.0101 121.033 13.0498C120.699 13.0894 120.304 13.2198 120.15 13.3395C119.998 13.4598 119.783 13.5573 119.673 13.5573C119.563 13.5573 119.323 13.6836 119.14 13.8375C118.957 13.9915 118.764 14.1198 118.711 14.1232C118.583 14.1299 117.669 15.2766 117.36 15.8177C116.494 17.3374 116.79 20.6384 117.892 21.7401C118.013 21.861 118.112 22.0062 118.112 22.064C118.112 22.1212 118.21 22.1998 118.329 22.2375C118.45 22.2758 118.579 22.4055 118.617 22.5251C118.655 22.6454 118.762 22.7436 118.854 22.7436C118.947 22.7436 119.188 22.8699 119.39 23.0239C119.592 23.1778 119.853 23.3042 119.97 23.3042C120.088 23.3042 120.348 23.4043 120.549 23.5266C120.749 23.649 121.128 23.7821 121.389 23.8224C121.651 23.8627 122.04 23.9824 122.256 24.0886C122.472 24.1941 122.926 24.3164 123.264 24.3594C123.604 24.4025 123.99 24.5087 124.125 24.596C124.259 24.6834 124.587 24.7889 124.853 24.8306C125.468 24.9261 126.289 25.6843 126.289 26.1561C126.289 27.8486 123.059 28.1551 120.296 26.7254C119.988 26.5655 119.459 26.2845 119.12 26.1003C118.78 25.9162 118.419 25.7387 118.317 25.7064C118.12 25.6439 117.62 26.0889 117.428 26.4962C117.37 26.6199 117.174 26.9472 116.992 27.2248C115.869 28.9388 115.869 28.9382 116.991 29.8395C117.083 29.9141 117.335 30.0452 117.551 30.1306C117.767 30.2159 118.019 30.347 118.112 30.4216C118.204 30.4962 118.481 30.6212 118.727 30.7005C118.974 30.7792 119.276 30.9056 119.399 30.9822C119.523 31.0581 119.901 31.1831 120.24 31.2598C120.579 31.3364 120.927 31.4554 121.013 31.5239C121.279 31.737 126.303 31.7612 126.761 31.5522C126.964 31.4594 127.356 31.3216 127.633 31.245C127.911 31.169 128.213 31.048 128.305 30.9768C128.398 30.9049 128.647 30.7778 128.858 30.6938C129.356 30.4962 130.856 28.9966 130.954 28.5974C130.996 28.428 131.135 28.0872 131.264 27.8405C131.661 27.081 131.609 24.7278 131.174 23.7518C130.659 22.5977 129.873 21.7226 128.937 21.2622C127.344 20.4778 126.682 20.2418 125.253 19.9461C123.065 19.4937 122.155 18.956 122.123 18.097C122.069 16.6727 124.746 16.5369 127.578 17.8214C128.783 18.3679 129.132 18.3611 129.468 17.7838C131.079 15.0172 131.066 15.081 130.149 14.462C129.868 14.2724 129.573 14.1178 129.491 14.1178C129.411 14.1178 129.216 14.0163 129.058 13.8927C128.901 13.769 128.604 13.6359 128.399 13.5976C128.194 13.5593 127.875 13.4376 127.69 13.3274C127.505 13.2165 127.026 13.0928 126.625 13.0525C126.225 13.0121 125.67 12.9113 125.393 12.8293C124.703 12.6256 123.897 12.5652 123.096 12.6579ZM154.643 12.8172C154.397 13.0787 154.107 13.5519 153.845 14.1178C153.773 14.2718 153.539 14.7591 153.323 15.2007C152.833 16.2062 152.859 16.3346 153.64 16.75C155.315 17.6413 155.192 16.7386 155.192 28.0993C155.192 35.2759 155.226 37.7763 155.326 38.0553L155.461 38.427H157.554H159.647L159.828 38.1514C159.983 37.9134 160.009 37.4409 160.009 34.7852V31.6953L160.289 31.4157C160.609 31.0951 161.092 31.1213 161.8 31.4977C162.38 31.8062 165.594 31.8062 166.172 31.497C166.387 31.3828 166.688 31.2497 166.841 31.2013C167.163 31.0998 168.098 30.4256 168.566 29.9565C172.407 26.105 171.506 15.3714 167.192 13.5909C166.969 13.4988 166.71 13.3556 166.617 13.2729C166.524 13.1903 166.146 13.0733 165.777 13.0135C165.408 12.953 164.964 12.8495 164.791 12.7829C164.35 12.6129 162.923 12.631 162.404 12.8132C162.165 12.8972 161.734 13.0007 161.445 13.0431C161.157 13.0861 160.796 13.2192 160.644 13.3388C160.491 13.4591 160.332 13.5573 160.292 13.5573C160.252 13.5573 160.037 13.6964 159.814 13.8658C159.276 14.2758 158.619 14.2718 158.017 13.855C157.781 13.691 157.549 13.5573 157.5 13.5573C157.451 13.5573 157.285 13.4578 157.131 13.3361C156.976 13.2145 156.666 13.082 156.441 13.041C156.216 13 155.898 12.8723 155.735 12.7581C155.331 12.4744 154.945 12.4959 154.643 12.8172ZM175.167 12.9133C174.959 13.3025 174.704 13.7885 174.333 14.5097C174.205 14.7564 174.025 15.0434 173.933 15.1482C173.835 15.2591 173.757 15.5818 173.748 15.9212L173.732 16.5046L174.418 16.8441C174.937 17.1015 175.182 17.3085 175.426 17.695L175.749 18.2065L175.805 28.1578C175.859 37.8455 175.866 38.1137 176.078 38.2683C176.246 38.3913 176.742 38.427 178.271 38.427C180.961 38.427 180.711 38.8013 180.755 34.6978C180.785 31.9797 180.816 31.4567 180.958 31.3673C181.24 31.1892 181.95 31.245 182.414 31.4816C182.97 31.7652 186.341 31.821 186.73 31.5535C186.851 31.4702 187.153 31.3364 187.399 31.2571C188.239 30.9862 189.785 29.5404 190.283 28.5611C190.39 28.35 190.527 28.1013 190.587 28.0086C192.01 25.7891 191.91 18.993 190.415 16.3178C189.896 15.3889 188.151 13.5573 187.785 13.5573C187.682 13.5573 187.473 13.4591 187.319 13.3388C187.166 13.2185 186.743 13.0713 186.38 13.0121C186.017 12.9523 185.577 12.8495 185.404 12.7829C185.002 12.6283 183.365 12.6243 183.079 12.7769C182.96 12.8407 182.575 12.9463 182.224 13.0108C181.872 13.076 181.461 13.2259 181.312 13.3435C181.162 13.4611 180.977 13.5573 180.9 13.5573C180.824 13.5573 180.696 13.6359 180.616 13.732C180.141 14.3054 178.605 14.3524 178.605 13.7945C178.605 13.7354 178.459 13.6554 178.281 13.6157C178.102 13.5767 177.872 13.4517 177.769 13.3381C177.666 13.2245 177.397 13.0968 177.17 13.0552C176.943 13.0128 176.6 12.8817 176.408 12.7641C175.853 12.4233 175.401 12.4778 175.167 12.9133ZM235.278 12.6572C234.933 12.7029 234.597 12.7728 234.533 12.8125C234.47 12.8522 234.029 12.9382 233.556 13.0041C233.083 13.0699 232.536 13.2212 232.34 13.3401C232.145 13.4591 231.905 13.5566 231.806 13.5573C231.707 13.5573 231.49 13.6836 231.324 13.8375C231.158 13.9915 230.954 14.1178 230.871 14.1178C230.788 14.1178 230.326 14.5023 229.845 14.9735C226.752 17.9968 226.295 23.8459 228.793 28.4495C229.171 29.1465 230.787 30.6313 231.312 30.7631C231.467 30.802 231.593 30.8773 231.593 30.9304C231.593 30.9835 231.873 31.1085 232.215 31.208C232.557 31.3075 232.973 31.4601 233.139 31.5468C233.568 31.7699 238.012 31.7746 238.439 31.5522C238.599 31.4681 239.003 31.3364 239.335 31.2584C239.667 31.1805 240.015 31.0561 240.108 30.9815C240.2 30.9076 240.452 30.7772 240.667 30.6918C241.545 30.3463 242.46 29.6056 242.46 29.2413C242.46 29.0114 241.626 27.3351 241.457 27.2255C241.41 27.1939 241.337 27.0642 241.297 26.9365C241.08 26.2381 239.912 25.8315 239.702 26.3806C239.669 26.464 239.483 26.595 239.287 26.673C239.091 26.7503 238.855 26.8767 238.763 26.954C238.563 27.1213 236.85 27.5609 236.399 27.5609C235.161 27.5609 233.727 26.6407 233.102 25.4463C232.581 24.4502 233.005 24.1558 234.45 24.5066C235.916 24.8629 238.759 24.6854 239.547 24.1894C239.64 24.1309 239.876 24.0093 240.072 23.9192C241.139 23.4278 241.716 22.8632 242.188 21.8476C242.288 21.6318 242.439 21.3771 242.525 21.2817C243.011 20.7325 242.996 16.9032 242.504 16.3494C242.418 16.2519 242.348 16.1242 242.348 16.0657C242.348 15.5569 240.472 13.5573 239.995 13.5573C239.922 13.5573 239.721 13.4571 239.549 13.3348C239.372 13.2084 238.899 13.0646 238.453 13.0007C238.022 12.9402 237.55 12.8454 237.404 12.7903C236.979 12.6317 235.958 12.5672 235.278 12.6572ZM74.9889 12.7843C74.839 12.8441 74.3349 12.9463 73.8684 13.0108C73.4026 13.0753 72.9456 13.1956 72.8528 13.2776C72.7607 13.3603 72.5335 13.4652 72.3487 13.5102C72.1638 13.5559 71.8567 13.7112 71.6664 13.855C71.4756 13.9995 71.2685 14.1178 71.2067 14.1178C70.9412 14.1178 69.156 15.9118 69.156 16.1787C69.156 16.2607 69.0551 16.4563 68.9321 16.6129C68.8091 16.7695 68.7083 16.9577 68.7083 17.0309C68.7083 17.1035 68.6135 17.2978 68.4979 17.4611C68.3823 17.6245 68.2512 17.9276 68.2062 18.134C68.1618 18.341 68.018 18.7443 67.8869 19.0306C67.526 19.8204 67.526 24.9086 67.8876 25.6002C68.016 25.8469 68.1565 26.2623 68.2002 26.5238C68.2438 26.7852 68.3198 27.0245 68.3695 27.0548C68.4193 27.0857 68.6619 27.5065 68.9086 27.9897C69.2978 28.7506 70.4626 30.1366 70.714 30.1373C70.7503 30.1373 70.9284 30.265 71.1099 30.4209C71.2907 30.5762 71.5555 30.7328 71.698 30.7684C71.8405 30.8047 71.9568 30.8773 71.9568 30.9304C71.9568 30.9835 72.2364 31.1085 72.5786 31.208C72.9207 31.3075 73.3368 31.4601 73.5028 31.5468C73.9309 31.7699 78.3759 31.7746 78.802 31.5522C78.9627 31.4681 79.366 31.3364 79.6987 31.2584C80.0307 31.1805 80.3782 31.0561 80.471 30.9815C80.5631 30.9076 80.8151 30.7778 81.0309 30.6938C81.8066 30.3927 82.8235 29.5538 82.8235 29.2151C82.8235 29.0047 81.9793 27.3283 81.8213 27.2255C81.7736 27.1939 81.652 27.0077 81.5511 26.8115C81.1694 26.066 80.6794 25.939 79.9729 26.4021C79.7229 26.5655 79.3929 26.7826 79.2383 26.8841C78.5607 27.3304 76.6431 27.6806 76.0791 27.4601C75.9373 27.405 75.6006 27.2941 75.3297 27.2134C74.2872 26.9015 72.8696 25.0316 73.3287 24.5725C73.5619 24.3393 74.464 24.346 75.1872 24.586C76.2405 24.9355 79.1179 24.6639 80.0227 24.1289C80.1766 24.0382 80.4582 23.8936 80.6478 23.8083C80.8373 23.7229 81.0578 23.5744 81.1378 23.4782C81.2171 23.3821 81.3421 23.3035 81.4154 23.3035C81.488 23.3035 81.6963 23.1005 81.8778 22.8518C82.0586 22.6038 82.2952 22.2932 82.4034 22.1628C82.511 22.0318 82.599 21.8637 82.599 21.7891C82.599 21.7145 82.6931 21.533 82.8081 21.3865C83.5374 20.4529 83.2154 16.0604 82.3732 15.4621C82.3302 15.4312 82.2112 15.2544 82.1097 15.0696C82.0075 14.8848 81.7864 14.6206 81.6177 14.4821C81.449 14.343 81.1277 14.0788 80.9039 13.894C80.68 13.7085 80.4226 13.5573 80.3312 13.5573C80.2398 13.5573 80.0375 13.4571 79.8815 13.3348C79.7222 13.2091 79.2873 13.0652 78.8861 13.0047C78.4949 12.9463 77.9981 12.8448 77.783 12.7796C77.2991 12.633 75.3593 12.6364 74.9889 12.7843ZM140.572 12.7856C140.387 12.8434 139.811 12.9449 139.291 13.0115C138.772 13.0773 138.243 13.1983 138.115 13.2797C137.988 13.361 137.662 13.486 137.391 13.5573C137.12 13.6285 136.828 13.7569 136.743 13.8422C136.658 13.9276 136.414 14.0452 136.201 14.1037C135.989 14.1629 135.681 14.3154 135.518 14.4445C135.355 14.5729 135.152 14.6777 135.068 14.6777C134.785 14.6777 134.826 15.5159 135.125 15.85C135.238 15.9757 135.362 16.1538 135.403 16.2459C135.442 16.3386 135.651 16.6411 135.867 16.918C136.082 17.1956 136.307 17.533 136.366 17.6681C136.611 18.2294 137.535 18.3269 138.242 17.8651C139.456 17.0746 141.952 16.8266 143.037 17.3899C144.023 17.9007 144.326 18.3894 144.326 19.4702C144.326 20.5436 144.168 20.6841 143.317 20.3736C142.149 19.9468 141.941 19.9185 140.353 19.973C138.729 20.0281 138.056 20.1901 137.287 20.7123C137.123 20.8246 136.786 21.0504 136.539 21.2144C135.846 21.6762 134.81 23.0232 134.805 23.4715C134.803 23.5952 134.714 23.8473 134.608 24.0321C134.321 24.5275 134.321 27.2652 134.607 27.6698C134.715 27.8217 134.803 28.0502 134.803 28.1773C134.803 28.9429 137.084 31.2544 137.843 31.2584C137.927 31.2584 138.147 31.3593 138.332 31.4816C138.763 31.7666 142.366 31.8204 142.887 31.5495C143.05 31.4641 143.372 31.3317 143.602 31.2564C144.02 31.118 144.57 30.798 145.127 30.3672C145.52 30.064 145.805 30.0768 146.21 30.4176C146.392 30.5715 146.581 30.6972 146.629 30.6972C146.677 30.6972 146.796 30.7691 146.893 30.8572C148.117 31.9615 150.263 32.0173 150.263 30.9445C150.263 30.8874 150.38 30.6676 150.524 30.4559C150.667 30.2442 150.845 29.9 150.917 29.6916C150.99 29.4826 151.118 29.2326 151.2 29.1364C151.618 28.6511 151.465 28.0119 150.881 27.8009C150.449 27.6443 149.927 27.1959 149.631 26.7254C149.439 26.4216 149.418 26.0297 149.364 21.9088L149.306 17.4221L148.982 16.6384C148.804 16.2069 148.591 15.7781 148.51 15.686C148.428 15.5932 148.107 15.2027 147.796 14.8175C147.485 14.4324 147.165 14.1178 147.086 14.1178C147.007 14.1178 146.833 13.9915 146.699 13.8375C146.565 13.6836 146.373 13.5573 146.271 13.5573C146.171 13.5573 145.927 13.4578 145.729 13.3354C145.531 13.2138 145.047 13.0666 144.652 13.0094C144.256 12.9523 143.791 12.8508 143.618 12.7836C143.238 12.6364 141.045 12.6377 140.572 12.7856ZM205.206 13.7649C205.147 13.8174 204.847 13.9263 204.539 14.0063C203.481 14.2812 203.208 14.9069 203.2 17.0672L203.195 18.3927L203.561 18.7201C203.762 18.8995 204.043 19.0467 204.186 19.0467C204.327 19.0467 204.566 19.1765 204.716 19.3358L204.988 19.6248L205.048 25.1331C205.082 28.1625 205.149 30.7489 205.197 30.88C205.391 31.3996 206.728 31.655 208.747 31.5582C211.386 31.4318 211.205 31.8009 211.205 26.5702C211.205 22.1185 211.198 22.1857 211.742 20.7641C212.315 19.2652 214.194 18.6697 215.591 19.5455C216.596 20.176 216.68 20.5651 216.801 25.2084L216.899 28.961L217.233 29.6332C217.609 30.3887 218.163 30.9553 218.991 31.4332L219.55 31.7558L221.735 31.7585C222.937 31.7605 224.046 31.7263 224.2 31.6826C225.16 31.4103 225.206 27.7068 224.256 27.1805C222.911 26.4351 222.896 26.3867 222.803 22.2045C222.728 18.8646 222.712 18.6582 222.446 17.8913C221.452 15.0192 219.839 13.9108 216.638 13.9007C214.652 13.894 213.668 14.2482 211.541 15.735C210.94 16.1545 210.732 16.1034 209.982 15.3499C209.613 14.9802 209.268 14.6777 209.215 14.6777C209.163 14.6777 208.957 14.5581 208.759 14.4116C208.558 14.2637 208.154 14.1131 207.846 14.0728C207.542 14.0325 207.084 13.9249 206.827 13.8342C206.315 13.654 205.375 13.6137 205.206 13.7649ZM77.1385 17.1029C78.0311 17.5599 78.3409 18.9217 77.7535 19.8096C76.7762 21.2864 72.9113 21.1855 73.1116 19.6886C73.3784 17.6997 75.5636 16.2963 77.1385 17.1029ZM107.2 17.0861C108.045 17.4336 108.385 19.0178 107.798 19.8748C107.208 20.7365 105.412 21.1103 104.044 20.6559C103.062 20.3292 102.91 20.0274 103.322 19.2195C103.443 18.9809 103.594 18.6293 103.658 18.4391C104.069 17.1909 105.824 16.5208 107.2 17.0861ZM236.765 17.0988C238.81 18.1333 237.566 20.8394 235.046 20.8394C232.891 20.8394 232.342 20.2196 233.124 18.6744C233.689 17.5593 234.248 17.1298 235.458 16.879C235.775 16.8138 236.413 16.9214 236.765 17.0988ZM163.716 17.3173C164.117 17.5223 164.826 18.1642 164.826 18.3222C164.826 18.3934 164.923 18.5399 165.042 18.6475C165.161 18.755 165.293 19.0521 165.335 19.3089C165.378 19.565 165.494 19.9259 165.593 20.1108C165.869 20.6256 165.861 24.0281 165.582 24.4529C165.474 24.6175 165.386 24.8562 165.386 24.9839C165.386 26.0271 163.688 27.5703 162.553 27.5582C161.69 27.5481 160.336 26.7859 160.129 26.1931C159.859 25.4161 159.974 18.5715 160.265 18.1393C160.893 17.2077 162.673 16.7836 163.716 17.3173ZM184.434 17.3166C184.923 17.5619 185.735 18.5204 185.815 18.9466C185.856 19.1623 185.989 19.5361 186.112 19.7767C186.481 20.5013 186.439 24.1417 186.052 24.9281C185.901 25.2359 185.776 25.5888 185.775 25.7125C185.771 26.3658 184.091 27.5609 183.176 27.5609C182.65 27.5609 181.539 27.0897 181.172 26.7106L180.79 26.3161L180.755 22.5977C180.717 18.4142 180.729 18.2778 181.185 17.8106C181.871 17.1089 183.522 16.8575 184.434 17.3166ZM143.541 24.1168C144.321 24.5786 144.326 24.5873 144.326 25.7293C144.326 27.1825 143.757 27.6711 142.044 27.6913C140.616 27.7074 139.863 27.1462 139.671 25.9202C139.417 24.3016 141.9 23.1449 143.541 24.1168ZM197.258 25.4907C196.949 25.576 196.668 25.6486 196.631 25.6513C196.545 25.6574 196.119 26.0123 195.678 26.4465C194.098 27.9998 195.11 31.3586 197.283 31.772C199.401 32.1752 200.906 31.2672 201.332 29.3307C201.868 26.8914 199.671 24.8205 197.258 25.4907Z" fill="white"/>
<defs>
<clipPath id="clip0">
<rect width="41.6635" height="41.6635" rx="4" fill="white"/>
</clipPath>
</defs>
</svg>
