<svg width="155" height="25" viewBox="0 0 155 25" fill="none" xmlns="http://www.w3.org/2000/svg">
<g clip-path="url(#clip0)">
<path d="M24.8842 0H0V24.8842H24.8842V0Z" fill="#01A3B2"/>
<path d="M8.95036 16.8707C8.37318 16.3012 8.01365 15.5515 7.93306 14.7492C7.85247 13.947 8.05585 13.1419 8.50845 12.4713C8.96107 11.8007 9.63493 11.3061 10.4151 11.0718C11.1953 10.8375 12.0336 10.8781 12.7869 11.1865C13.5403 11.495 14.1621 12.0523 14.5464 12.7634C14.9306 13.4744 15.0535 14.2953 14.8941 15.0859C14.7347 15.8765 14.3029 16.5881 13.6722 17.0991C13.0416 17.6102 12.2512 17.8891 11.4358 17.8884C10.5038 17.8876 9.61007 17.5216 8.95036 16.8707ZM8.16789 11.1761C7.42055 11.9151 6.953 12.8857 6.84375 13.9252V14.8939C6.94951 15.8996 7.39073 16.842 8.09789 17.5724C8.80505 18.3028 9.73792 18.7798 10.7495 18.9282C10.977 18.9564 11.206 18.9718 11.4354 18.9743C11.6647 18.9718 11.8937 18.9564 12.1212 18.9282C13.0995 18.7867 14.0052 18.3358 14.7028 17.643C15.4619 16.8901 15.9324 15.8996 16.0335 14.8413C16.1346 13.783 15.8602 12.7228 15.2571 11.8428L15.552 11.5512C15.6068 11.4967 15.6376 11.4228 15.6376 11.3459C15.6376 11.269 15.6068 11.1952 15.552 11.1406L14.7457 10.343C14.6906 10.2887 14.6159 10.2583 14.5381 10.2583C14.4603 10.2583 14.3856 10.2887 14.3305 10.343L14.0356 10.6346C13.1461 10.0369 12.074 9.76415 11.0033 9.86297C9.93263 9.96181 8.93009 10.4261 8.16789 11.1761ZM14.7336 9.28473L14.6071 9.48125C14.5667 9.5472 14.5524 9.6256 14.5668 9.70138C14.5813 9.77716 14.6236 9.845 14.6855 9.89184C14.9374 10.0721 15.1767 10.2689 15.4017 10.4809C15.6162 10.7035 15.8153 10.9401 15.9976 11.1891C16.0434 11.2523 16.1122 11.2956 16.1895 11.3101C16.2668 11.3245 16.3468 11.3089 16.4128 11.2666L16.6176 11.1355C16.6495 11.1154 16.677 11.0891 16.6983 11.0583C16.7196 11.0274 16.7344 10.9925 16.7417 10.9558C16.749 10.9191 16.7488 10.8814 16.7409 10.8448C16.733 10.8082 16.7178 10.7736 16.696 10.743C16.48 10.4449 16.2427 10.1624 15.9859 9.89781C15.7164 9.64555 15.4307 9.41069 15.1307 9.19477C15.0838 9.15977 15.027 9.14038 14.9683 9.13941C14.9213 9.14529 14.8761 9.16112 14.8359 9.18579C14.7956 9.21045 14.7612 9.24341 14.735 9.28243L14.7336 9.28473ZM15.5534 8.01516L15.2403 8.50326C15.1999 8.56921 15.1855 8.6476 15.2 8.72339C15.2145 8.79917 15.2567 8.86697 15.3187 8.91382C15.6412 9.14205 15.9469 9.39256 16.2336 9.66349C16.5053 9.94915 16.7581 10.2518 16.9904 10.5695C17.0363 10.6327 17.105 10.6761 17.1824 10.6905C17.2597 10.7049 17.3397 10.6894 17.4057 10.647L17.8993 10.3388C17.9407 10.3108 17.9756 10.2743 18.0015 10.2318C18.0256 10.1968 18.0395 10.156 18.0416 10.1137C18.0345 10.0548 18.0124 9.99857 17.9773 9.95041C17.6964 9.56442 17.3906 9.19675 17.0618 8.84969C16.7108 8.52478 16.3389 8.22262 15.9486 7.94503C15.9015 7.91072 15.8447 7.892 15.7862 7.89153C15.7396 7.89008 15.6934 7.90089 15.6524 7.92285C15.6115 7.94481 15.5771 7.97714 15.5529 8.01654L15.5534 8.01516ZM12.5248 6.2017L12.3984 6.54078C12.3481 6.67575 12.2688 6.79835 12.1659 6.90006C12.0631 7.00176 11.9391 7.08018 11.8026 7.12989L11.4596 7.25491C11.4534 7.25742 11.4479 7.26144 11.4437 7.26663C11.4394 7.27178 11.4366 7.27791 11.4354 7.28444C11.4354 7.29135 11.4378 7.29805 11.4422 7.30342C11.4467 7.30876 11.4528 7.3125 11.4596 7.31398L11.8026 7.43899C11.9391 7.4887 12.0631 7.56709 12.1659 7.66883C12.2688 7.77053 12.3481 7.8931 12.3984 8.02807L12.5248 8.36715C12.5274 8.37331 12.5314 8.37872 12.5366 8.38293C12.5419 8.3871 12.5481 8.38993 12.5547 8.39116C12.5617 8.39109 12.5684 8.38871 12.5739 8.38434C12.5793 8.37997 12.583 8.37391 12.5845 8.36715L12.711 8.02807C12.7613 7.8931 12.8406 7.77053 12.9434 7.66883C13.0463 7.56709 13.1703 7.4887 13.3068 7.43899L13.6497 7.31398C13.656 7.31143 13.6614 7.30741 13.6657 7.30226C13.6699 7.2971 13.6728 7.29098 13.674 7.28444C13.6739 7.27753 13.6715 7.27084 13.6671 7.26546C13.6627 7.26009 13.6566 7.25638 13.6497 7.25491L13.3068 7.12989C13.1703 7.08018 13.0463 7.00176 12.9434 6.90006C12.8406 6.79835 12.7613 6.67575 12.711 6.54078L12.585 6.2017C12.5835 6.19491 12.5797 6.18881 12.5742 6.18448C12.5687 6.18011 12.5619 6.17772 12.5549 6.17772C12.5479 6.17772 12.541 6.18011 12.5356 6.18448C12.5301 6.18881 12.5263 6.19491 12.5248 6.2017ZM14.2218 6.46926C14.2218 6.57983 14.2549 6.68791 14.317 6.77988C14.3791 6.87181 14.4674 6.94348 14.5707 6.9858C14.674 7.02812 14.7877 7.03924 14.8974 7.01769C15.0071 6.99617 15.1078 6.94294 15.187 6.8648C15.266 6.78666 15.32 6.68706 15.3418 6.57864C15.3637 6.47021 15.3526 6.35782 15.3098 6.25564C15.2671 6.15347 15.1947 6.06609 15.1018 6.0046C15.0088 5.94312 14.8995 5.91025 14.7877 5.91016C14.7134 5.91009 14.6399 5.92452 14.5712 5.9526C14.5026 5.98066 14.4402 6.02185 14.3877 6.07379C14.3352 6.12572 14.2935 6.18737 14.2651 6.25524C14.2367 6.3231 14.2222 6.39584 14.2222 6.46926" fill="white"/>
</g>
<path fill-rule="evenodd" clip-rule="evenodd" d="M52.2991 2.89532C52.2694 2.94148 52.2353 5.85444 52.2232 9.36878C52.1991 16.3581 52.2256 17.0819 52.5219 17.5183C52.6086 17.6464 52.6801 17.7756 52.6801 17.8058C52.6801 17.8868 53.4368 18.6014 53.5231 18.6018C53.5637 18.6022 53.7383 18.6773 53.9113 18.7696C54.3983 19.0282 56.1362 19.0234 56.6709 18.7616C57.0957 18.5541 57.0897 18.5938 56.8657 17.4709C56.6705 16.4914 56.6501 16.4613 56.1948 16.4613C55.8002 16.4613 55.4626 16.3204 55.3393 16.1048C55.2747 15.992 55.2522 14.5118 55.2394 9.53618C55.2269 4.79741 55.202 3.07316 55.1442 2.96236C55.0507 2.7817 52.4127 2.71988 52.2991 2.89532ZM34.8487 5.02142C34.7383 5.05153 34.3023 5.17076 33.8799 5.28598C32.6479 5.622 32.7161 5.53609 32.6399 6.84403C32.5849 7.78745 32.6093 7.76296 31.7085 7.76296C30.7899 7.76296 30.8008 7.7477 30.8008 9.05604C30.8008 10.3523 30.7984 10.3491 31.7265 10.3829C32.6804 10.4178 32.6073 10.1617 32.6073 13.4672C32.6073 17.1253 32.7109 17.5063 33.9715 18.4702C34.1144 18.5798 34.2653 18.6693 34.3067 18.6693C34.3484 18.6693 34.4946 18.7295 34.6319 18.803C34.994 18.9969 37.0502 19.0029 37.5392 18.8114C37.7154 18.7424 37.9652 18.6641 38.0936 18.6376C39.0142 18.4485 39.2775 18.0213 38.915 17.3055C38.8612 17.1996 38.7725 16.9587 38.7171 16.7704C38.6621 16.5817 38.5428 16.3493 38.4529 16.2537L38.2887 16.0799L37.6392 16.2453C36.4721 16.5428 36.1345 16.4874 35.7519 15.9338L35.5845 15.6917L35.5657 13.1987L35.5464 10.7056L35.713 10.539C35.878 10.3744 35.8924 10.3724 37.0454 10.3724C38.5653 10.3724 38.6083 10.3632 38.7026 10.0127C38.7853 9.7056 38.7608 7.9396 38.6725 7.85088C38.6424 7.82077 37.976 7.78664 37.1911 7.775C35.4027 7.7481 35.5665 7.89383 35.5388 6.30487C35.5143 4.86927 35.5002 4.84318 34.8487 5.02142ZM150.735 4.99854C150.662 5.0154 150.481 5.06879 150.334 5.11777C150.187 5.16675 149.765 5.28959 149.397 5.39076C148.523 5.63163 148.567 5.57222 148.519 6.59513C148.464 7.76978 148.469 7.76256 147.639 7.76376C146.597 7.76537 146.687 7.64854 146.687 9.00024C146.687 10.3893 146.647 10.325 147.544 10.3724C148.527 10.4242 148.452 10.1665 148.5 13.6724C148.541 16.6588 148.569 16.9707 148.837 17.4376C149.008 17.7355 149.871 18.6022 149.996 18.6022C150.042 18.6022 150.221 18.6777 150.394 18.7696C150.823 18.9973 152.92 19.0262 153.399 18.8106C153.553 18.7407 153.815 18.6625 153.98 18.636C154.146 18.6095 154.327 18.5497 154.382 18.5027C154.437 18.4561 154.595 18.3782 154.733 18.3293C155.014 18.2301 155.09 17.8443 154.882 17.5689C154.827 17.4978 154.783 17.3923 154.783 17.3349C154.783 17.2774 154.708 17.0799 154.618 16.8961C154.527 16.7122 154.452 16.5095 154.451 16.446C154.446 16.1514 154.154 16.094 153.491 16.2573C152.561 16.4862 152.438 16.4922 152.055 16.3272C151.688 16.1694 151.67 16.1433 151.534 15.5913C151.383 14.9799 151.4 10.9497 151.555 10.6402L151.672 10.4057L152.991 10.3724C154.677 10.3299 154.549 10.4387 154.549 9.0424C154.549 7.64613 154.69 7.76296 153.01 7.76296C151.329 7.76296 151.481 7.89865 151.438 6.35787C151.397 4.92588 151.361 4.85642 150.735 4.99854ZM63.1757 7.57026C62.8947 7.59314 62.6289 7.63369 62.5856 7.66099C62.5418 7.68789 62.2941 7.73646 62.0352 7.76898C61.7738 7.8015 61.4671 7.88821 61.3463 7.96288C61.2263 8.03675 61.0837 8.09737 61.0295 8.09737C60.9749 8.09737 60.8433 8.17284 60.7361 8.26478C60.6293 8.35671 60.504 8.43178 60.4579 8.43178C60.4113 8.43218 60.3081 8.50726 60.2282 8.59919C60.1483 8.69152 60.0432 8.7666 59.9946 8.7666C59.946 8.7666 59.9063 8.78948 59.9063 8.81758C59.9063 8.84568 59.7995 8.9886 59.6686 9.13513C59.3234 9.52334 58.9942 10.048 58.8749 10.3989C58.8175 10.5675 58.7412 10.7586 58.7055 10.8232C58.4068 11.3628 58.2053 13.4403 58.3619 14.3613C58.4626 14.9546 58.6264 15.6548 58.7047 15.8254C58.738 15.8992 58.8131 16.104 58.8713 16.2806C59.17 17.1883 60.7116 18.6693 61.3579 18.6693C61.4097 18.6693 61.5892 18.7315 61.7562 18.8074C62.1183 18.9728 64.8735 18.9844 65.0694 18.8214C65.1236 18.7765 65.3311 18.7054 65.5311 18.6637C65.731 18.6215 65.9397 18.5505 65.9947 18.5055C66.0501 18.4605 66.2007 18.3822 66.3296 18.3313C67.3761 17.919 67.6255 17.3818 67.0787 16.7166C66.9916 16.611 66.9004 16.4561 66.6258 15.949C66.4648 15.6519 65.794 15.4657 65.794 15.7182C65.794 15.7423 65.6812 15.8198 65.5431 15.8908C65.4054 15.9615 65.2472 16.0538 65.1918 16.0956C65.0626 16.1935 64.012 16.4633 63.7639 16.4621C63.0685 16.4589 61.9902 15.7905 61.8726 15.2902C61.8465 15.1798 61.7803 15.0201 61.7253 14.935C61.498 14.5845 62.1251 14.4472 62.8513 14.6885C63.4716 14.8944 65.1605 14.7302 65.7274 14.4086C65.8193 14.3565 65.9775 14.2822 66.0786 14.2432C66.1798 14.2047 66.2625 14.1529 66.2625 14.128C66.2625 14.1031 66.3625 14.0289 66.4849 13.963C66.6074 13.8972 66.7503 13.7792 66.8029 13.7009C66.8551 13.6226 66.963 13.4905 67.0425 13.407C67.1216 13.3239 67.2212 13.1517 67.2633 13.024C67.3055 12.8964 67.3834 12.7555 67.4368 12.7113C67.4902 12.6671 67.5339 12.5447 67.5339 12.4395C67.5339 12.3343 67.5696 12.0397 67.6134 11.7843C67.7154 11.1906 67.5917 10.1661 67.3581 9.66345C67.2706 9.47597 67.1991 9.28889 67.1991 9.24754C67.1991 9.20659 67.1389 9.14035 67.0654 9.10101C66.992 9.06167 66.9317 8.99944 66.9317 8.96291C66.9317 8.879 66.4893 8.43218 66.4066 8.43218C66.3733 8.43218 66.3091 8.38762 66.2641 8.33343C66.1108 8.14876 65.3697 7.8288 64.9345 7.75935C64.6956 7.72121 64.4676 7.66942 64.4279 7.64493C64.2978 7.56384 63.6968 7.52811 63.1757 7.57026ZM73.522 7.56022C73.3012 7.58592 73.0154 7.63931 72.8865 7.67905C72.7577 7.7188 72.4895 7.77059 72.29 7.79427C72.09 7.81796 71.854 7.89584 71.7624 7.9673C71.6717 8.03916 71.5433 8.09737 71.4774 8.09737C71.4116 8.09737 71.2683 8.17284 71.1591 8.26478C71.0499 8.35671 70.9346 8.43339 70.9029 8.43539C70.8263 8.43941 70.2807 9.12429 70.096 9.44746C69.5785 10.3552 69.7556 12.3267 70.414 12.9847C70.4858 13.0569 70.5448 13.1437 70.5448 13.1782C70.5448 13.2123 70.6034 13.2593 70.6749 13.2818C70.7468 13.3046 70.8242 13.3821 70.8467 13.4536C70.8696 13.5254 70.9334 13.5841 70.9884 13.5841C71.0438 13.5841 71.1876 13.6595 71.3084 13.7515C71.4288 13.8434 71.585 13.9189 71.6549 13.9189C71.7251 13.9189 71.8805 13.9787 72.0005 14.0518C72.1201 14.1248 72.3462 14.2043 72.5023 14.2284C72.6585 14.2525 72.8913 14.3239 73.0202 14.3874C73.1491 14.4504 73.42 14.5235 73.6224 14.5492C73.8251 14.5748 74.056 14.6383 74.1362 14.6905C74.2165 14.7427 74.4125 14.8057 74.5714 14.8306C74.9388 14.8876 75.4289 15.3404 75.4289 15.6222C75.4289 16.6331 73.4999 16.8162 71.8496 15.9623C71.6653 15.8667 71.3493 15.6989 71.147 15.5889C70.9443 15.4789 70.7287 15.3729 70.6673 15.3537C70.55 15.3163 70.2514 15.5821 70.1365 15.8254C70.102 15.8992 69.9848 16.0948 69.8764 16.2606C69.2056 17.2843 69.2056 17.2839 69.8756 17.8222C69.9306 17.8668 70.0811 17.9451 70.21 17.996C70.3389 18.047 70.4894 18.1253 70.5448 18.1699C70.5998 18.2144 70.7656 18.2891 70.9126 18.3365C71.0599 18.3834 71.2406 18.4589 71.314 18.5047C71.3879 18.5501 71.6135 18.6247 71.8158 18.6705C72.0186 18.7163 72.2261 18.7873 72.2779 18.8283C72.4369 18.9555 75.4374 18.97 75.7108 18.8451C75.832 18.7897 76.0664 18.7074 76.2318 18.6617C76.3976 18.6163 76.5783 18.544 76.6333 18.5015C76.6887 18.4585 76.8372 18.3826 76.9633 18.3325C77.2608 18.2144 78.1564 17.3188 78.215 17.0803C78.2403 16.9792 78.3234 16.7756 78.4005 16.6283C78.6374 16.1746 78.6064 14.7692 78.3463 14.1862C78.0392 13.4969 77.5695 12.9742 77.0107 12.6992C76.0592 12.2308 75.6638 12.0898 74.8099 11.9132C73.5036 11.643 72.96 11.3219 72.9407 10.8088C72.9086 9.95812 74.5076 9.87702 76.1985 10.6442C76.9187 10.9706 77.1267 10.9666 77.3278 10.6217C78.2901 8.96933 78.2821 9.00747 77.7345 8.63773C77.5667 8.52452 77.39 8.43218 77.3415 8.43218C77.2933 8.43218 77.1769 8.37156 77.0829 8.2977C76.989 8.22383 76.8115 8.14434 76.6891 8.12146C76.5667 8.09858 76.376 8.02591 76.2656 7.96007C76.1552 7.89383 75.8689 7.81996 75.6297 7.79588C75.3904 7.77179 75.0592 7.71157 74.8938 7.66259C74.4815 7.54095 74.0002 7.50482 73.522 7.56022ZM92.3639 7.65537C92.217 7.81153 92.0435 8.09416 91.887 8.43218C91.8444 8.52412 91.7043 8.81517 91.5754 9.07893C91.2828 9.6795 91.2984 9.75618 91.7649 10.0043C92.7654 10.5366 92.6915 9.99746 92.6915 16.7828C92.6915 21.0692 92.712 22.5626 92.7718 22.7292L92.8525 22.9512H94.1026H95.3527L95.4607 22.7866C95.5535 22.6445 95.5687 22.3623 95.5687 20.7761V18.9306L95.7361 18.7636C95.9272 18.5721 96.2155 18.5878 96.6382 18.8126C96.9847 18.9969 98.9044 18.9969 99.2497 18.8122C99.3781 18.744 99.5576 18.6645 99.6491 18.6356C99.8418 18.5749 100.4 18.1723 100.679 17.8921C102.974 15.5917 102.436 9.1809 99.8591 8.11744C99.7258 8.06244 99.5712 7.97693 99.5154 7.92755C99.46 7.87818 99.234 7.80832 99.0136 7.77259C98.7932 7.73646 98.5282 7.67464 98.4247 7.63489C98.1613 7.53333 97.3094 7.54417 96.9991 7.65296C96.8562 7.70314 96.5989 7.76497 96.4266 7.79026C96.2544 7.81595 96.0388 7.89544 95.9477 7.9669C95.8566 8.03876 95.7618 8.09737 95.7377 8.09737C95.7136 8.09737 95.5852 8.18047 95.4523 8.28164C95.1311 8.52653 94.7385 8.52412 94.3792 8.27522C94.2383 8.17726 94.0994 8.09737 94.0701 8.09737C94.0412 8.09737 93.942 8.03796 93.8497 7.96529C93.7574 7.89263 93.5719 7.81354 93.4374 7.78905C93.3033 7.76456 93.1134 7.68829 93.0159 7.62004C92.7746 7.45063 92.5442 7.46347 92.3639 7.65537ZM104.622 7.71278C104.498 7.94522 104.346 8.23547 104.124 8.66623C104.047 8.81357 103.94 8.98499 103.885 9.04761C103.826 9.11385 103.78 9.30655 103.774 9.50929L103.765 9.85775L104.175 10.0605C104.485 10.2142 104.631 10.3379 104.777 10.5687L104.97 10.8742L105.003 16.8178C105.035 22.6039 105.04 22.7641 105.166 22.8565C105.267 22.9299 105.563 22.9512 106.476 22.9512C108.082 22.9512 107.934 23.1748 107.96 20.7239C107.977 19.1005 107.996 18.7881 108.081 18.7347C108.249 18.6283 108.673 18.6617 108.95 18.803C109.282 18.9724 111.296 19.0057 111.529 18.8459C111.601 18.7961 111.781 18.7163 111.928 18.6689C112.429 18.5071 113.353 17.6436 113.651 17.0586C113.714 16.9326 113.796 16.7841 113.832 16.7287C114.682 15.403 114.622 11.3439 113.729 9.74615C113.419 9.19133 112.377 8.09737 112.158 8.09737C112.097 8.09737 111.972 8.03876 111.88 7.9669C111.789 7.89504 111.536 7.80712 111.319 7.77179C111.102 7.73606 110.84 7.67464 110.736 7.63489C110.496 7.54256 109.518 7.54015 109.348 7.63128C109.277 7.66942 109.047 7.73245 108.837 7.77099C108.627 7.80993 108.382 7.89945 108.292 7.96971C108.203 8.03996 108.092 8.09737 108.046 8.09737C108.001 8.09737 107.924 8.14434 107.877 8.20175C107.593 8.54419 106.676 8.57229 106.676 8.23908C106.676 8.20376 106.588 8.15598 106.482 8.1323C106.375 8.10901 106.238 8.03434 106.176 7.9665C106.115 7.89865 105.954 7.82237 105.818 7.79748C105.683 7.77219 105.478 7.69391 105.363 7.62365C105.032 7.42012 104.762 7.45263 104.622 7.71278ZM140.524 7.55982C140.318 7.58712 140.118 7.62887 140.08 7.65256C140.042 7.67624 139.779 7.72763 139.496 7.76697C139.213 7.80631 138.887 7.89664 138.77 7.9677C138.653 8.03876 138.51 8.09697 138.451 8.09737C138.392 8.09737 138.262 8.17284 138.163 8.26478C138.064 8.35671 137.942 8.43218 137.892 8.43218C137.843 8.43218 137.567 8.66182 137.279 8.94323C135.432 10.749 135.159 14.2424 136.651 16.992C136.877 17.4083 137.842 18.2951 138.155 18.3738C138.248 18.3971 138.324 18.4421 138.324 18.4738C138.324 18.5055 138.491 18.5802 138.695 18.6396C138.899 18.699 139.148 18.7901 139.247 18.8419C139.503 18.9752 142.158 18.978 142.412 18.8451C142.508 18.7949 142.749 18.7163 142.948 18.6697C143.146 18.6231 143.354 18.5488 143.409 18.5043C143.464 18.4601 143.614 18.3822 143.743 18.3313C144.267 18.1249 144.814 17.6825 144.814 17.4649C144.814 17.3276 144.316 16.3264 144.215 16.261C144.187 16.2421 144.143 16.1646 144.119 16.0883C143.99 15.6712 143.292 15.4283 143.166 15.7563C143.147 15.8061 143.036 15.8844 142.919 15.931C142.802 15.9771 142.661 16.0526 142.606 16.0988C142.486 16.1987 141.463 16.4613 141.194 16.4613C140.455 16.4613 139.598 15.9117 139.225 15.1983C138.914 14.6033 139.167 14.4275 140.03 14.6371C140.905 14.8498 142.603 14.7439 143.074 14.4476C143.13 14.4127 143.27 14.34 143.388 14.2862C144.025 13.9927 144.37 13.6555 144.651 13.0489C144.711 12.92 144.802 12.7679 144.853 12.7109C145.143 12.3829 145.134 10.0958 144.84 9.76501C144.789 9.7068 144.747 9.63053 144.747 9.5956C144.747 9.2917 143.626 8.09737 143.341 8.09737C143.298 8.09737 143.178 8.03755 143.075 7.96449C142.969 7.88901 142.687 7.8031 142.421 7.76497C142.163 7.72883 141.881 7.67223 141.794 7.63931C141.54 7.54457 140.931 7.50603 140.524 7.55982ZM44.7891 7.6357C44.6996 7.67143 44.3985 7.73245 44.1199 7.77099C43.8417 7.80953 43.5687 7.88139 43.5133 7.93036C43.4583 7.97974 43.3226 8.04237 43.2122 8.06927C43.1018 8.09657 42.9183 8.1893 42.8047 8.27522C42.6907 8.36153 42.567 8.43218 42.5301 8.43218C42.3715 8.43218 41.3053 9.50367 41.3053 9.66305C41.3053 9.71202 41.245 9.82885 41.1716 9.92239C41.0981 10.0159 41.0379 10.1283 41.0379 10.1721C41.0379 10.2154 40.9813 10.3315 40.9122 10.429C40.8432 10.5266 40.7649 10.7076 40.738 10.8309C40.7115 10.9545 40.6256 11.1954 40.5473 11.3664C40.3317 11.8381 40.3317 14.8771 40.5477 15.2902C40.6244 15.4376 40.7083 15.6857 40.7344 15.8418C40.7605 15.998 40.8058 16.1409 40.8356 16.159C40.8653 16.1775 41.0102 16.4288 41.1575 16.7174C41.39 17.1719 42.0857 17.9997 42.2358 18.0001C42.2575 18.0001 42.3639 18.0763 42.4723 18.1695C42.5803 18.2622 42.7385 18.3558 42.8236 18.377C42.9087 18.3987 42.9781 18.4421 42.9781 18.4738C42.9781 18.5055 43.1451 18.5802 43.3495 18.6396C43.5538 18.699 43.8023 18.7901 43.9015 18.8419C44.1572 18.9752 46.812 18.978 47.0665 18.8451C47.1625 18.7949 47.4034 18.7163 47.6021 18.6697C47.8004 18.6231 48.008 18.5488 48.0634 18.5043C48.1184 18.4601 48.2689 18.3826 48.3978 18.3325C48.861 18.1526 49.4684 17.6516 49.4684 17.4493C49.4684 17.3236 48.9642 16.3224 48.8699 16.261C48.8414 16.2421 48.7687 16.1309 48.7085 16.0137C48.4805 15.5684 48.1878 15.4926 47.7659 15.7692C47.6165 15.8667 47.4194 15.9964 47.3271 16.057C46.9224 16.3236 45.7771 16.5327 45.4402 16.4011C45.3555 16.3681 45.1544 16.3019 44.9926 16.2537C44.37 16.0675 43.5233 14.9506 43.7975 14.6764C43.9368 14.5371 44.4755 14.5411 44.9075 14.6844C45.5366 14.8932 47.2552 14.731 47.7956 14.4115C47.8875 14.3573 48.0557 14.2709 48.1689 14.22C48.2821 14.169 48.4138 14.0803 48.4616 14.0228C48.509 13.9654 48.5836 13.9185 48.6274 13.9185C48.6708 13.9185 48.7952 13.7972 48.9036 13.6487C49.0116 13.5006 49.1529 13.3151 49.2175 13.2372C49.2818 13.1589 49.3344 13.0586 49.3344 13.014C49.3344 12.9694 49.3906 12.861 49.4592 12.7735C49.8948 12.2159 49.7025 9.59239 49.1995 9.23509C49.1738 9.21663 49.1027 9.11104 49.0421 9.00064C48.9811 8.89024 48.849 8.73247 48.7482 8.64977C48.6475 8.56667 48.4556 8.4089 48.3219 8.2985C48.1882 8.1877 48.0344 8.09737 47.9798 8.09737C47.9253 8.09737 47.8044 8.03755 47.7113 7.96449C47.6161 7.88942 47.3564 7.80351 47.1167 7.76737C46.8831 7.73245 46.5864 7.67183 46.4579 7.63289C46.1689 7.54537 45.0103 7.54738 44.7891 7.6357ZM83.9598 7.6365C83.8494 7.67103 83.5054 7.73164 83.1947 7.77139C82.8843 7.81073 82.5684 7.88299 82.4921 7.93157C82.4163 7.98014 82.2216 8.05482 82.0598 8.09737C81.898 8.13992 81.7237 8.2166 81.6728 8.26759C81.6218 8.31857 81.4765 8.38883 81.3492 8.42375C81.2223 8.45908 81.0385 8.55021 80.9409 8.62729C80.8438 8.70397 80.7225 8.7666 80.6723 8.7666C80.5033 8.7666 80.5278 9.26721 80.7065 9.46673C80.7739 9.54181 80.8482 9.64819 80.8723 9.70319C80.8959 9.75859 81.0208 9.93925 81.1497 10.1046C81.2781 10.2704 81.4122 10.472 81.4475 10.5527C81.5941 10.8879 82.1457 10.9461 82.568 10.6703C83.293 10.1982 84.7836 10.05 85.432 10.3865C86.0209 10.6916 86.2016 10.9834 86.2016 11.629C86.2016 12.2701 86.1076 12.354 85.5994 12.1685C84.9017 11.9136 84.7776 11.8967 83.8286 11.9293C82.8587 11.9622 82.4568 12.0589 81.9979 12.3709C81.8996 12.4379 81.6985 12.5728 81.5511 12.6707C81.1368 12.9465 80.5182 13.7511 80.515 14.0188C80.5142 14.0927 80.4612 14.2432 80.3973 14.3536C80.2263 14.6495 80.2263 16.2846 80.3969 16.5263C80.4616 16.617 80.5142 16.7535 80.5142 16.8294C80.5142 17.2867 81.8763 18.6673 82.3295 18.6697C82.3797 18.6697 82.5114 18.7299 82.6218 18.803C82.8791 18.9732 85.0313 19.0053 85.3421 18.8435C85.4396 18.7925 85.6319 18.7134 85.7692 18.6685C86.0193 18.5858 86.3477 18.3947 86.6805 18.1374C86.915 17.9563 87.0852 17.9639 87.3269 18.1675C87.436 18.2594 87.5489 18.3345 87.5774 18.3345C87.6059 18.3345 87.6769 18.3774 87.7351 18.43C88.4662 19.0896 89.7476 19.1229 89.7476 18.4822C89.7476 18.4481 89.8179 18.3168 89.9034 18.1903C89.9893 18.0639 90.0953 17.8583 90.1386 17.7339C90.182 17.609 90.2583 17.4597 90.3077 17.4023C90.557 17.1124 90.4658 16.7307 90.117 16.6046C89.8588 16.5111 89.5469 16.2433 89.3703 15.9623C89.2558 15.7808 89.243 15.5468 89.2109 13.0854L89.176 10.4057L88.9824 9.93764C88.8761 9.67991 88.7492 9.42378 88.7006 9.36878C88.6521 9.31338 88.4602 9.08013 88.2743 8.8501C88.0884 8.62006 87.8977 8.43218 87.8503 8.43218C87.803 8.43218 87.699 8.35671 87.6191 8.26478C87.5392 8.17284 87.4244 8.09737 87.3638 8.09737C87.3036 8.09737 87.1578 8.03795 87.0398 7.96489C86.9218 7.89223 86.6323 7.80431 86.3963 7.77018C86.1602 7.73606 85.8824 7.67544 85.7788 7.63529C85.552 7.54738 84.2421 7.54818 83.9598 7.6365ZM122.563 8.22142C122.528 8.25273 122.349 8.31777 122.165 8.36554C121.533 8.52974 121.37 8.90349 121.365 10.1938L121.362 10.9854L121.581 11.1809C121.701 11.2881 121.869 11.3761 121.954 11.3761C122.039 11.3761 122.181 11.4535 122.271 11.5487L122.433 11.7213L122.469 15.0112C122.489 16.8206 122.529 18.3654 122.558 18.4437C122.674 18.754 123.472 18.9065 124.678 18.8487C126.255 18.7733 126.146 18.9937 126.146 15.8695C126.146 13.2107 126.142 13.2508 126.467 12.4018C126.809 11.5065 127.932 11.1508 128.766 11.6739C129.366 12.0505 129.416 12.2829 129.489 15.0562L129.547 17.2975L129.747 17.699C129.971 18.1502 130.302 18.4886 130.796 18.7741L131.131 18.9668L132.436 18.9684C133.153 18.9696 133.816 18.9491 133.908 18.923C134.481 18.7604 134.509 16.5484 133.941 16.2341C133.138 15.7888 133.129 15.7599 133.073 13.2621C133.029 11.2673 133.019 11.144 132.86 10.686C132.267 8.97053 131.303 8.30854 129.391 8.30251C128.205 8.2985 127.618 8.51007 126.347 9.39809C125.988 9.64859 125.864 9.61808 125.416 9.16805C125.195 8.94725 124.99 8.7666 124.958 8.7666C124.927 8.7666 124.804 8.69514 124.685 8.60762C124.565 8.5193 124.324 8.42937 124.14 8.40529C123.959 8.3812 123.685 8.31697 123.531 8.26277C123.226 8.15518 122.664 8.13109 122.563 8.22142ZM46.0729 10.215C46.6061 10.488 46.7911 11.3014 46.4403 11.8317C45.8566 12.7137 43.5482 12.6535 43.6678 11.7594C43.8272 10.5715 45.1323 9.7333 46.0729 10.215ZM64.0276 10.205C64.5322 10.4126 64.7354 11.3588 64.3849 11.8706C64.0324 12.3853 62.9597 12.6085 62.1428 12.3371C61.5563 12.142 61.4651 11.9618 61.7112 11.4792C61.7839 11.3367 61.8742 11.1267 61.9119 11.0131C62.1576 10.2676 63.2058 9.86739 64.0276 10.205ZM141.412 10.2126C142.634 10.8305 141.891 12.4467 140.386 12.4467C139.099 12.4467 138.771 12.0766 139.238 11.1536C139.575 10.4876 139.909 10.2311 140.632 10.0814C140.821 10.0424 141.203 10.1067 141.412 10.2126ZM97.7827 10.3431C98.022 10.4656 98.446 10.8489 98.446 10.9433C98.446 10.9858 98.5038 11.0734 98.5748 11.1376C98.6459 11.2018 98.7246 11.3793 98.7498 11.5326C98.7755 11.6856 98.8446 11.9012 98.904 12.0116C99.0686 12.3191 99.0638 14.3512 98.8976 14.605C98.833 14.7033 98.7804 14.8458 98.7804 14.9221C98.7804 15.5452 97.7659 16.4669 97.0882 16.4597C96.5728 16.4537 95.7642 15.9984 95.6406 15.6443C95.4792 15.1802 95.5478 11.0922 95.7217 10.8341C96.0966 10.2777 97.1601 10.0244 97.7827 10.3431ZM110.157 10.3427C110.449 10.4892 110.934 11.0617 110.982 11.3162C111.006 11.4451 111.086 11.6683 111.159 11.812C111.38 12.2448 111.355 14.4191 111.123 14.8888C111.033 15.0727 110.959 15.2834 110.958 15.3573C110.956 15.7475 109.952 16.4613 109.406 16.4613C109.091 16.4613 108.428 16.1799 108.209 15.9534L107.98 15.7178L107.96 13.4969C107.937 10.9983 107.944 10.9168 108.217 10.6378C108.626 10.2187 109.612 10.0685 110.157 10.3427ZM85.7331 14.4042C86.1988 14.68 86.2016 14.6852 86.2016 15.3673C86.2016 16.2353 85.8619 16.5271 84.8386 16.5392C83.9859 16.5488 83.5363 16.2136 83.4215 15.4813C83.2697 14.5146 84.7527 13.8237 85.7331 14.4042ZM117.816 15.2248C117.632 15.2758 117.464 15.3191 117.442 15.3208C117.39 15.3244 117.136 15.5363 116.873 15.7957C115.929 16.7234 116.534 18.7295 117.831 18.9764C119.096 19.2173 119.995 18.6749 120.249 17.5183C120.57 16.0614 119.257 14.8246 117.816 15.2248Z" fill="#183446"/>
<defs>
<clipPath id="clip0">
<rect width="24.8842" height="24.8842" rx="4" fill="white"/>
</clipPath>
</defs>
</svg>
