<svg width="28" height="28" viewBox="0 0 28 28" fill="none" xmlns="http://www.w3.org/2000/svg">
<path d="M20.4046 27.9939C20.2094 27.9939 20.0175 27.8911 19.9071 27.7043C15.5606 20.3314 9.59998 17.0428 0.582278 17.0428C0.260732 17.0428 0 16.7707 0 16.4351C0 16.0996 0.260732 15.8275 0.582278 15.8275C10.0511 15.8275 16.3173 19.2931 20.9005 27.0667C21.0685 27.3529 20.9837 27.7275 20.7102 27.9036C20.6142 27.9647 20.5086 27.9939 20.4046 27.9939Z" fill="#F8FCFF"/>
<path d="M27.4003 17.0361H0.582278C0.260732 17.0361 0 16.764 0 16.4285C0 16.0929 0.260732 15.8208 0.582278 15.8208H27.4003C27.7219 15.8208 27.9826 16.0929 27.9826 16.4285C27.9826 16.764 27.7219 17.0361 27.4003 17.0361Z" fill="#F8FCFF"/>
<path d="M27.382 20.6965H17.4716C17.1485 20.6965 16.8877 20.4244 16.8877 20.0889C16.8877 19.7517 17.1485 19.4796 17.4716 19.4796H27.382C27.7035 19.4796 27.9642 19.7517 27.9642 20.0889C27.9642 20.4244 27.7035 20.6965 27.382 20.6965Z" fill="#F8FCFF"/>
<path d="M27.3815 24.3315H20.968C20.6465 24.3315 20.3857 24.0591 20.3857 23.7232C20.3857 23.3873 20.6465 23.1149 20.968 23.1149H27.3815C27.703 23.1149 27.9637 23.3873 27.9637 23.7232C27.9637 24.0591 27.703 24.3315 27.3815 24.3315Z" fill="#F8FCFF"/>
<path d="M27.4164 27.9939H22.1693C21.8478 27.9939 21.5869 27.7215 21.5869 27.3854C21.5869 27.0495 21.8478 26.7771 22.1693 26.7771H27.4164C27.738 26.7771 27.9987 27.0495 27.9987 27.3854C27.9987 27.7215 27.738 27.9939 27.4164 27.9939Z" fill="#F8FCFF"/>
<path d="M16.3239 27.9939C16.14 27.9939 15.9592 27.9032 15.8456 27.734C10.5809 19.869 0.700948 20.0827 0.600165 20.0843C0.294616 20.096 0.0098629 19.8306 0.000264493 19.495C-0.00933391 19.1595 0.243499 18.8791 0.565046 18.869C1.00177 18.8557 11.1713 18.6253 16.8023 27.037C16.9863 27.3126 16.9223 27.6917 16.6567 27.8842C16.556 27.9582 16.4391 27.9939 16.3239 27.9939Z" fill="#F8FCFF"/>
<path d="M11.6597 27.9939C11.5125 27.9939 11.3637 27.935 11.2501 27.8168C7.1068 23.5192 0.619855 23.1297 0.554266 23.1261C0.232719 23.1092 -0.0152649 22.8237 0.000732469 22.4882C0.0183296 22.1527 0.299958 21.8973 0.613506 21.9106C0.896659 21.9256 7.61707 22.3313 12.0707 26.9542C12.2995 27.1909 12.3011 27.5762 12.074 27.8144C11.9604 27.9341 11.81 27.9939 11.6597 27.9939Z" fill="#F8FCFF"/>
<path d="M6.1212 27.9939C5.99962 27.9939 5.87649 27.954 5.77251 27.872C3.82403 26.3456 0.589345 26.1696 0.555751 26.1681C0.235804 26.1521 -0.0138047 25.8676 0.000592868 25.5323C0.0165902 25.1966 0.285371 24.9423 0.610117 24.9527C0.757292 24.9599 4.23349 25.145 6.47152 26.899C6.72908 27.1006 6.78194 27.4821 6.58838 27.7508C6.47319 27.9101 6.29877 27.9939 6.1212 27.9939Z" fill="#F8FCFF"/>
<path d="M13.964 16.8994C13.6425 16.8994 13.3817 16.6273 13.3817 16.2918V11.7561C13.3817 9.09686 12.0171 6.71804 9.43513 4.87841C9.16957 4.6881 9.10076 4.31083 9.28153 4.03204C9.4639 3.75493 9.82709 3.68482 10.0926 3.87346C13.0074 5.9518 14.5479 8.67786 14.5479 11.7561V16.2918C14.5479 16.6273 14.2871 16.8994 13.964 16.8994Z" fill="#F8FCFF"/>
<path d="M9.2578 8.01782C6.57664 8.01782 4.53053 3.97798 3.95943 2.0215C3.88424 1.76776 3.97697 1.49231 4.18814 1.34207C4.26493 1.28698 6.0935 -9.34601e-05 8.07237 -9.34601e-05C11.9581 -9.34601e-05 12.6844 2.49727 12.8172 3.57066C12.8572 3.90286 12.6316 4.20835 12.3117 4.25175C11.9933 4.29849 11.7021 4.05811 11.6605 3.72591C11.459 2.08326 10.2176 1.21521 8.07237 1.21521C6.92216 1.21521 5.78637 1.77944 5.21847 2.11164C5.86796 3.92122 7.53168 6.80086 9.2578 6.80086C9.90729 6.80086 10.7854 6.62558 11.283 5.7909C11.4525 5.50544 11.8109 5.41697 12.0845 5.59392C12.358 5.77087 12.4429 6.14648 12.2733 6.43194C11.6654 7.45358 10.5936 8.01782 9.2578 8.01782Z" fill="#F8FCFF"/>
<path d="M13.9739 17.0361C13.6523 17.0361 13.3916 16.764 13.3916 16.4285V11.7409C13.3916 8.26702 15.3176 5.29056 18.9634 3.13208C19.2434 2.96515 19.6002 3.06865 19.7585 3.36079C19.9185 3.65293 19.8193 4.0252 19.5393 4.19046C16.2791 6.12023 14.5578 8.7311 14.5578 11.7409V16.4285C14.5578 16.764 14.297 17.0361 13.9739 17.0361Z" fill="#F8FCFF"/>
<path d="M18.7538 8.01782C17.4164 8.01782 16.3462 7.45358 15.7367 6.43194C15.5671 6.14648 15.652 5.77087 15.9255 5.59392C16.1991 5.41697 16.5589 5.50544 16.7285 5.7909C17.2244 6.62558 18.1027 6.80086 18.7538 6.80086C20.4783 6.80086 22.1421 3.92289 22.79 2.11164C22.2221 1.78111 21.083 1.21521 19.9376 1.21521C18.1907 1.21521 17.0613 1.77277 16.5782 2.86953C16.4454 3.17502 16.1015 3.31024 15.8055 3.17001C15.5128 3.02979 15.3848 2.6692 15.5192 2.36204C15.9927 1.28364 17.1445 -9.34601e-05 19.9376 -9.34601e-05C21.9165 -9.34601e-05 23.7465 1.28698 23.8233 1.34207C24.0329 1.49231 24.1258 1.76776 24.0522 2.0215C23.4811 3.97798 21.435 8.01782 18.7538 8.01782Z" fill="#F8FCFF"/>
<path d="M4.02531 17.0361C3.70216 17.0361 3.44141 16.764 3.44141 16.4285V13.3869C3.44141 13.0514 3.70216 12.7776 4.02531 12.7776C4.34686 12.7776 4.60759 13.0514 4.60759 13.3869V16.4285C4.60759 16.764 4.34686 17.0361 4.02531 17.0361Z" fill="#F8FCFF"/>
<path d="M8.72746 17.0361C8.40591 17.0361 8.14355 16.764 8.14355 16.4285V12.17C8.14355 11.8344 8.40591 11.5623 8.72746 11.5623C9.049 11.5623 9.30974 11.8344 9.30974 12.17V16.4285C9.30974 16.764 9.049 17.0361 8.72746 17.0361Z" fill="#F8FCFF"/>
<path d="M19.1669 17.0361C18.8438 17.0361 18.583 16.764 18.583 16.4285V12.17C18.583 11.8344 18.8438 11.5623 19.1669 11.5623C19.4885 11.5623 19.7492 11.8344 19.7492 12.17V16.4285C19.7492 16.764 19.4885 17.0361 19.1669 17.0361Z" fill="#F8FCFF"/>
<path d="M23.8671 17.0361C23.544 17.0361 23.2832 16.764 23.2832 16.4285V13.3869C23.2832 13.0514 23.544 12.7776 23.8671 12.7776C24.1887 12.7776 24.4494 13.0514 24.4494 13.3869V16.4285C24.4494 16.764 24.1887 17.0361 23.8671 17.0361Z" fill="#F8FCFF"/>
</svg>
