<svg width="38" height="38" viewBox="0 0 38 38" fill="none" xmlns="http://www.w3.org/2000/svg">
<path d="M35.8401 14.1629C34.5616 9.70424 31.4871 5.86446 27.4046 3.6281C27.0451 3.43142 26.594 3.56301 26.3971 3.92245C26.2002 4.28189 26.3319 4.73299 26.6914 4.92997C30.4288 6.97729 33.2432 10.4917 34.4133 14.5719C34.5066 14.8977 34.8036 15.1098 35.1263 15.1098C35.194 15.1098 35.2629 15.1005 35.3312 15.0808C35.7253 14.9679 35.9531 14.5568 35.8401 14.1629Z" fill="#F8FCFF"/>
<path d="M24.439 2.34603L24.4059 2.3352C24.0154 2.20991 23.5975 2.4247 23.4723 2.81495C23.347 3.20519 23.5617 3.62311 23.9519 3.74854L23.9786 3.75715C24.0551 3.78209 24.1327 3.79397 24.209 3.79397C24.5215 3.79397 24.8123 3.59491 24.9144 3.28171C25.0415 2.89199 24.8286 2.47302 24.439 2.34603Z" fill="#F8FCFF"/>
<path d="M3.39793 12.7877C3.01051 12.6532 2.58776 12.8579 2.4532 13.245C2.30936 13.6588 2.17963 14.0829 2.06786 14.5055C1.96299 14.9016 2.19915 15.3079 2.5954 15.4128C2.65901 15.4297 2.72291 15.4377 2.78577 15.4377C3.11434 15.4377 3.41478 15.2178 3.50273 14.8852C3.60507 14.4988 3.72368 14.1108 3.85519 13.7325C3.98975 13.3453 3.78513 12.9223 3.39793 12.7877Z" fill="#F8FCFF"/>
<path d="M5.94115 8.44572C5.6117 8.20214 5.14686 8.27183 4.90328 8.60173C4.64314 8.95375 4.39339 9.3198 4.16086 9.6897C3.94266 10.0367 4.04709 10.4948 4.39413 10.713C4.51682 10.7902 4.65346 10.827 4.78846 10.827C5.03516 10.827 5.27652 10.7041 5.41754 10.4797C5.6304 10.141 5.85907 9.80601 6.09716 9.4836C6.34075 9.15399 6.27091 8.68924 5.94115 8.44572Z" fill="#F8FCFF"/>
<path d="M14.2056 2.90404C14.0714 2.51676 13.6486 2.31162 13.2612 2.44589C12.8479 2.5892 12.4349 2.75003 12.0339 2.924C11.6579 3.08714 11.4852 3.52421 11.6484 3.9002C11.7698 4.18015 12.0428 4.34737 12.3296 4.34737C12.4282 4.34737 12.5285 4.32755 12.6247 4.28584C12.9915 4.12664 13.3693 3.97954 13.7474 3.8484C14.1347 3.71413 14.3398 3.29131 14.2056 2.90404Z" fill="#F8FCFF"/>
<path d="M9.65523 5.04943C9.41201 4.71946 8.9474 4.64902 8.61742 4.89239C8.26563 5.15178 7.9191 5.4278 7.58749 5.71288C7.27666 5.98006 7.24126 6.44868 7.50852 6.75951C7.65525 6.93014 7.86284 7.01779 8.07162 7.01779C8.24291 7.01779 8.41503 6.95879 8.55508 6.8384C8.85871 6.57738 9.17599 6.32466 9.49818 6.08723C9.82808 5.84402 9.89844 5.37941 9.65523 5.04943Z" fill="#F8FCFF"/>
<path d="M2.22656 16.7734C0.998836 16.7734 0 17.7723 0 19C0 20.2277 0.998836 21.2266 2.22656 21.2266C3.45429 21.2266 4.45312 20.2277 4.45312 19C4.45312 17.7723 3.45429 16.7734 2.22656 16.7734ZM2.22656 19.7422C1.81732 19.7422 1.48438 19.4092 1.48438 19C1.48438 18.5908 1.81732 18.2578 2.22656 18.2578C2.6358 18.2578 2.96875 18.5908 2.96875 19C2.96875 19.4092 2.6358 19.7422 2.22656 19.7422Z" fill="#F8FCFF"/>
<path d="M35.7734 16.7734C34.5457 16.7734 33.5469 17.7723 33.5469 19C33.5469 20.2277 34.5457 21.2266 35.7734 21.2266C37.0012 21.2266 38 20.2277 38 19C38 17.7723 37.0012 16.7734 35.7734 16.7734ZM35.7734 19.7422C35.3642 19.7422 35.0312 19.4092 35.0312 19C35.0312 18.5908 35.3642 18.2578 35.7734 18.2578C36.1827 18.2578 36.5156 18.5908 36.5156 19C36.5156 19.4092 36.1827 19.7422 35.7734 19.7422Z" fill="#F8FCFF"/>
<path d="M19 0C17.7723 0 16.7734 0.998836 16.7734 2.22656C16.7734 3.45429 17.7723 4.45312 19 4.45312C20.2277 4.45312 21.2266 3.45429 21.2266 2.22656C21.2266 0.998836 20.2277 0 19 0ZM19 2.96875C18.5908 2.96875 18.2578 2.6358 18.2578 2.22656C18.2578 1.81732 18.5908 1.48438 19 1.48438C19.4092 1.48438 19.7422 1.81732 19.7422 2.22656C19.7422 2.6358 19.4092 2.96875 19 2.96875Z" fill="#F8FCFF"/>
<path d="M11.4007 33.1197C7.61618 31.0784 4.76848 27.5458 3.58759 23.428C3.4747 23.0341 3.06382 22.8059 2.66957 22.9193C2.27555 23.0322 2.04777 23.4433 2.1608 23.8373C3.45102 28.3368 6.56205 32.1963 10.696 34.4262C10.8081 34.4866 10.9288 34.5153 11.0477 34.5153C11.3118 34.5153 11.5674 34.3741 11.7016 34.1253C11.8962 33.7646 11.7615 33.3143 11.4007 33.1197Z" fill="#F8FCFF"/>
<path d="M14.0505 34.2529L14.0293 34.246C13.6389 34.1206 13.2209 34.335 13.0954 34.7252C12.9699 35.1153 13.1843 35.5335 13.5746 35.659L13.591 35.6643C13.6673 35.6892 13.7447 35.701 13.8209 35.701C14.1336 35.701 14.4245 35.5017 14.5265 35.1884C14.6534 34.7986 14.4403 34.3798 14.0505 34.2529Z" fill="#F8FCFF"/>
<path d="M26.3502 34.0996C26.187 33.7236 25.75 33.5507 25.374 33.714C25.0072 33.8732 24.6294 34.0203 24.2512 34.1514C23.864 34.2857 23.6588 34.7085 23.7931 35.0958C23.8995 35.4026 24.1869 35.5951 24.4943 35.5951C24.5749 35.5951 24.6569 35.5818 24.7374 35.5539C25.1507 35.4106 25.5637 35.2498 25.9647 35.0758C26.3407 34.9127 26.5134 34.4756 26.3502 34.0996Z" fill="#F8FCFF"/>
<path d="M33.607 27.2867C33.26 27.0684 32.8018 27.173 32.5837 27.5201C32.3708 27.8587 32.1422 28.1938 31.9041 28.5162C31.6605 28.8458 31.7303 29.3105 32.0601 29.554C32.1927 29.6521 32.3472 29.6994 32.5005 29.6994C32.7279 29.6994 32.9525 29.5951 33.098 29.398C33.3582 29.046 33.6079 28.68 33.8405 28.3101C34.0585 27.9631 33.9541 27.5049 33.607 27.2867Z" fill="#F8FCFF"/>
<path d="M30.4918 31.2405C30.2246 30.9298 29.756 30.8945 29.4451 31.1616C29.1415 31.4227 28.8242 31.6754 28.502 31.9128C28.1721 32.156 28.1018 32.6206 28.345 32.9506C28.4905 33.148 28.7152 33.2525 28.9431 33.2525C29.096 33.2525 29.2503 33.2053 29.3829 33.1077C29.7347 32.8483 30.0812 32.5722 30.4128 32.2872C30.7236 32.02 30.759 31.5514 30.4918 31.2405Z" fill="#F8FCFF"/>
<path d="M35.4067 22.5869C35.0106 22.4818 34.6042 22.7182 34.4993 23.1145C34.3969 23.5009 34.2783 23.8889 34.1468 24.2672C34.0123 24.6544 34.2169 25.0774 34.6041 25.212C34.6848 25.24 34.7669 25.2534 34.8478 25.2534C35.155 25.2534 35.4423 25.0612 35.5488 24.7547C35.6927 24.3409 35.8224 23.9169 35.9342 23.4943C36.0391 23.0981 35.8029 22.6918 35.4067 22.5869Z" fill="#F8FCFF"/>
<path d="M19 33.5469C17.7723 33.5469 16.7734 34.5457 16.7734 35.7734C16.7734 37.0012 17.7723 38 19 38C20.2277 38 21.2266 37.0012 21.2266 35.7734C21.2266 34.5457 20.2277 33.5469 19 33.5469ZM19 36.5156C18.5908 36.5156 18.2578 36.1827 18.2578 35.7734C18.2578 35.3642 18.5908 35.0312 19 35.0312C19.4092 35.0312 19.7422 35.3642 19.7422 35.7734C19.7422 36.1827 19.4092 36.5156 19 36.5156Z" fill="#F8FCFF"/>
<path d="M22.606 18.2576H22.3006C22.9957 17.4767 23.4192 16.4488 23.4192 15.3235V13.762V13.0396V12.877C23.4192 10.4407 21.4371 8.45858 19.0008 8.45858C16.5644 8.45858 14.5823 10.4407 14.5823 12.877V13.0396V13.762V15.3235C14.5823 16.4488 15.0058 17.4767 15.7009 18.2576H15.3955C12.3671 18.2576 9.90332 20.7214 9.90332 23.7498V27.4585C9.90332 27.8683 10.2357 28.2007 10.6455 28.2007H27.356C27.7659 28.2007 28.0982 27.8683 28.0982 27.4585V23.7498C28.0982 20.7214 25.6344 18.2576 22.606 18.2576ZM19.0008 9.94288C20.4725 9.94288 21.6946 11.0321 21.9034 12.4467L20.5937 11.6772C20.2813 11.4935 19.8817 11.5626 19.6489 11.8404C19.0209 12.59 18.0999 13.0198 17.122 13.0198H16.0667V12.877C16.0667 11.2591 17.3829 9.94288 19.0008 9.94288ZM16.0667 14.5042H17.122C18.3262 14.5042 19.4709 14.0547 20.3466 13.2536L21.9349 14.1867V15.3234C21.9349 16.9414 20.6187 18.2576 19.0008 18.2576C17.3829 18.2576 16.0667 16.9414 16.0667 15.3235V14.5042ZM26.6138 26.7163H11.3877V23.7498C11.3877 21.5399 13.1856 19.742 15.3955 19.742H18.2586V22.8592C18.2586 23.269 18.5909 23.6014 19.0008 23.6014C19.4106 23.6014 19.743 23.269 19.743 22.8592V19.742H22.606C24.8159 19.742 26.6138 21.5399 26.6138 23.7498V26.7163Z" fill="#F8FCFF"/>
<path d="M13.5223 14.8283L12.5377 13.8436C12.3986 13.7044 12.2098 13.6261 12.0129 13.6261C11.8161 13.6261 11.6274 13.7044 11.4881 13.8435L6.87655 18.4551C6.58672 18.7449 6.58672 19.2148 6.87655 19.5047C7.02157 19.6498 7.2115 19.7222 7.40142 19.7222C7.59135 19.7222 7.78128 19.6497 7.92623 19.5048L12.0129 15.4181L12.4726 15.8779C12.7625 16.1676 13.2324 16.1678 13.5223 15.8779C13.8122 15.588 13.8122 15.1182 13.5223 14.8283Z" fill="#F8FCFF"/>
<path d="M29.131 8.81939H27.0466C26.6368 8.81939 26.3044 9.15174 26.3044 9.56158C26.3044 9.97141 26.6368 10.3038 27.0466 10.3038H27.3379L24.6021 13.0395C24.3123 13.3294 24.3123 13.7993 24.6021 14.0892C24.7471 14.2341 24.937 14.3066 25.1269 14.3066C25.3169 14.3066 25.5068 14.2341 25.6517 14.0892L28.3889 11.3521V11.6461C28.3889 12.0559 28.7211 12.3883 29.131 12.3883C29.5409 12.3883 29.8732 12.0559 29.8732 11.6461V9.56158C29.8732 9.15174 29.5409 8.81939 29.131 8.81939Z" fill="#F8FCFF"/>
</svg>
