<svg width="32" height="26" viewBox="0 0 32 26" fill="none" xmlns="http://www.w3.org/2000/svg">
<path d="M7.33421 12.0012C4.02475 12.0012 1.33364 14.6924 1.33364 18C1.33364 21.3095 4.02475 24.0006 7.33421 24.0006C10.6418 24.0006 13.3329 21.3095 13.3329 18C13.3329 14.6924 10.6418 12.0012 7.33421 12.0012ZM7.33421 25.3342C3.28931 25.3342 0 22.0449 0 18C0 13.9569 3.28931 10.6676 7.33421 10.6676C11.3773 10.6676 14.6667 13.9569 14.6667 18C14.6667 22.0449 11.3773 25.3342 7.33421 25.3342Z" fill="#F8FCFF"/>
<path d="M26.6667 16.0004C24.4604 16.0004 22.6657 17.7951 22.6657 20.0014C22.6657 22.2059 24.4604 24.0006 26.6667 24.0006C28.8712 24.0006 30.6658 22.2059 30.6658 20.0014C30.6658 17.7951 28.8712 16.0004 26.6667 16.0004ZM26.6667 25.3342C23.725 25.3342 21.332 22.9413 21.332 20.0014C21.332 17.0597 23.725 14.6667 26.6667 14.6667C29.6066 14.6667 31.9995 17.0597 31.9995 20.0014C31.9995 22.9413 29.6066 25.3342 26.6667 25.3342Z" fill="#F8FCFF"/>
<path d="M26.6687 13.333C26.301 13.333 26.0009 13.0348 26.0009 12.6671V10.6675C26.0009 10.2998 25.7026 9.99977 25.3349 9.99977H17.4757C16.6909 9.99977 16.0048 9.47471 15.8053 8.72281L13.7033 1.69591C13.6759 1.61541 13.6009 1.39589 13.5551 1.34466C13.5478 1.34649 13.5094 1.33368 13.4106 1.33368H6.00138C5.63367 1.33368 5.33364 1.63188 5.33364 1.9996V7.33426C5.33364 7.70198 5.03547 8.00018 4.66775 8.00018C4.30003 8.00018 4 7.70198 4 7.33426V1.9996C4 0.896444 4.89823 2.00272e-05 6.00138 2.00272e-05H13.4106C14.5339 2.00272e-05 14.7992 0.777536 14.9748 1.29161L17.0878 8.36241C17.139 8.54902 17.2946 8.66609 17.4757 8.66609H25.3349C26.438 8.66609 27.3346 9.56436 27.3346 10.6675V12.6671C27.3346 13.0348 27.0364 13.333 26.6687 13.333Z" fill="#F8FCFF"/>
<path d="M22.4492 18.6677H14.0008C13.6312 18.6677 13.333 18.3695 13.333 18C13.333 17.6323 13.6312 17.3341 14.0008 17.3341H22.4492C22.8188 17.3341 23.117 17.6323 23.117 18C23.117 18.3695 22.8188 18.6677 22.4492 18.6677Z" fill="#F8FCFF"/>
<path d="M17.335 10.0002H10.663C10.2952 10.0002 9.99707 9.70204 9.99707 9.33432C9.99707 8.96477 10.2952 8.66657 10.663 8.66657H17.335C17.7027 8.66657 18.0009 8.96477 18.0009 9.33432C18.0009 9.70204 17.7027 10.0002 17.335 10.0002Z" fill="#F8FCFF"/>
<path d="M23.3341 12.667H20.0008C19.6312 12.667 19.333 12.3688 19.333 12.0011C19.333 11.6315 19.6312 11.3333 20.0008 11.3333H23.3341C23.7018 11.3333 23.9999 11.6315 23.9999 12.0011C23.9999 12.3688 23.7018 12.667 23.3341 12.667Z" fill="#F8FCFF"/>
<path d="M16.3075 16.5493C16.002 16.5493 15.7258 16.3371 15.6581 16.0261C14.8092 12.1861 11.3334 9.39801 7.39456 9.39801C6.64083 9.39801 5.89256 9.4968 5.16993 9.69255C3.79236 10.0676 2.519 10.7957 1.48903 11.7982C1.22559 12.0544 0.802986 12.0507 0.546864 11.7854C0.290742 11.522 0.296287 11.0994 0.559727 10.8433C1.7507 9.68158 3.2252 8.84004 4.82047 8.40646C5.65836 8.17961 6.52374 8.06435 7.39456 8.06435C11.9535 8.06435 15.9765 11.2915 16.9607 15.7389C17.0394 16.0974 16.8124 16.4542 16.452 16.5328C16.4045 16.5438 16.3551 16.5493 16.3075 16.5493Z" fill="#F8FCFF"/>
<path d="M26.6675 19.3341C26.2998 19.3341 25.9998 19.6342 25.9998 20.0019C25.9998 20.3696 26.2998 20.6678 26.6675 20.6678C27.0353 20.6678 27.3334 20.3696 27.3334 20.0019C27.3334 19.6342 27.0353 19.3341 26.6675 19.3341ZM26.6675 22.0015C25.5644 22.0015 24.666 21.105 24.666 20.0019C24.666 18.8987 25.5644 18.0005 26.6675 18.0005C27.7707 18.0005 28.6671 18.8987 28.6671 20.0019C28.6671 21.105 27.7707 22.0015 26.6675 22.0015Z" fill="#F8FCFF"/>
<path d="M20.667 10.0002C20.2993 10.0002 20.001 9.70204 20.001 9.33432V4.66741C20.001 4.48996 20.0705 4.32164 20.1949 4.19541L21.5286 2.86175C21.7883 2.60197 22.2109 2.60197 22.4707 2.86175C22.7323 3.12336 22.7323 3.54413 22.4707 3.80574L21.3329 4.94365V9.33432C21.3329 9.70204 21.0347 10.0002 20.667 10.0002Z" fill="#F8FCFF"/>
<path d="M23.3338 10.0002C22.9642 10.0002 22.666 9.70204 22.666 9.33432V5.33333C22.666 4.96561 22.9642 4.66741 23.3338 4.66741C23.7015 4.66741 23.9997 4.96561 23.9997 5.33333V9.33432C23.9997 9.70204 23.7015 10.0002 23.3338 10.0002Z" fill="#F8FCFF"/>
<path d="M8.66701 7.33447C8.29929 7.33447 8.00098 7.03627 8.00098 6.66673V0.666149C8.00098 0.298431 8.29929 0.000233173 8.66701 0.000233173C9.03656 0.000233173 9.33476 0.298431 9.33476 0.666149V6.66673C9.33476 7.03627 9.03656 7.33447 8.66701 7.33447Z" fill="#F8FCFF"/>
<path d="M7.33502 16.0007C6.23186 16.0007 5.33364 16.8989 5.33364 18.0002C5.33364 19.1034 6.23186 20.0017 7.33502 20.0017C8.43635 20.0017 9.33469 19.1034 9.33469 18.0002C9.33469 16.8989 8.43635 16.0007 7.33502 16.0007ZM7.33502 21.3335C5.49643 21.3335 4 19.8388 4 18.0002C4 16.1635 5.49643 14.667 7.33502 14.667C9.17178 14.667 10.6683 16.1635 10.6683 18.0002C10.6683 19.8388 9.17178 21.3335 7.33502 21.3335Z" fill="#F8FCFF"/>
</svg>
