<svg width="30" height="28" viewBox="0 0 30 28" fill="none" xmlns="http://www.w3.org/2000/svg">
<path d="M27.5014 27.4998H8.75199C8.40725 27.4998 8.12598 27.2202 8.12598 26.8755V19.3754C8.12598 19.0289 8.40725 18.7493 8.75199 18.7493C9.09672 18.7493 9.37626 19.0289 9.37626 19.3754V26.2495H26.8771V19.3754C26.8771 19.0289 27.1567 18.7493 27.5014 18.7493C27.8478 18.7493 28.1274 19.0289 28.1274 19.3754V26.8755C28.1274 27.2202 27.8478 27.4998 27.5014 27.4998Z" fill="#F8FCFF"/>
<path d="M29.3758 18.7227C29.1632 18.7227 28.9557 18.6146 28.8391 18.4191L25.2065 12.3528L18.1248 9.00662L11.0449 12.3528L7.41063 18.4191C7.23398 18.7158 6.84808 18.8118 6.55308 18.6335C6.25637 18.4568 6.16032 18.0726 6.33869 17.7776L10.069 11.5484C10.1325 11.4421 10.2267 11.3563 10.3382 11.3031L17.8573 7.75116C18.0271 7.67056 18.2226 7.67056 18.3924 7.75116L25.9113 11.3031C26.0228 11.3563 26.1172 11.4421 26.1807 11.5484L29.911 17.7776C30.0894 18.0726 29.9933 18.4568 29.6966 18.6335C29.5954 18.6952 29.4856 18.7227 29.3758 18.7227Z" fill="#F8FCFF"/>
<path d="M22.3657 27.3093C22.2233 27.3093 22.0827 27.2613 21.9661 27.1653L13.4865 20.099C13.2207 19.8795 13.1865 19.485 13.406 19.2192C13.6273 18.9534 14.0217 18.9191 14.2875 19.1386L22.7652 26.2048C23.0311 26.4243 23.0671 26.8188 22.8459 27.0846C22.7224 27.2339 22.544 27.3093 22.3657 27.3093Z" fill="#F8FCFF"/>
<path d="M22.4998 26.8752C22.155 26.8752 21.8755 26.5957 21.8755 26.2492V19.9994H14.3754V26.2492C14.3754 26.5957 14.0941 26.8752 13.7494 26.8752C13.4047 26.8752 13.125 26.5957 13.125 26.2492V19.3751C13.125 19.0287 13.4047 18.7491 13.7494 18.7491H22.4998C22.8445 18.7491 23.124 19.0287 23.124 19.3751V26.2492C23.124 26.5957 22.8445 26.8752 22.4998 26.8752Z" fill="#F8FCFF"/>
<path d="M13.888 27.3093C13.7079 27.3093 13.5295 27.2339 13.406 27.0846C13.1865 26.8188 13.2207 26.4243 13.4865 26.2048L21.9661 19.1386C22.2302 18.9191 22.6246 18.9534 22.8459 19.2192C23.0671 19.485 23.0311 19.8795 22.7652 20.099L14.2875 27.1653C14.1692 27.2613 14.0286 27.3093 13.888 27.3093Z" fill="#F8FCFF"/>
<path d="M16.8763 15.6249H20.0012V13.7503H16.8763V15.6249ZM20.6272 16.8752H16.252C15.9073 16.8752 15.626 16.5957 15.626 16.2509V13.1243C15.626 12.7796 15.9073 12.5 16.252 12.5H20.6272C20.972 12.5 21.2515 12.7796 21.2515 13.1243V16.2509C21.2515 16.5957 20.972 16.8752 20.6272 16.8752Z" fill="#F8FCFF"/>
<path d="M6.2498 27.4998H0.62427C0.279535 27.4998 0 27.2202 0 26.8755V6.24969C0 2.80234 2.80416 -0.000133514 6.2498 -0.000133514C9.69715 -0.000133514 12.4996 2.80234 12.4996 6.24969V8.7486C12.4996 9.09505 12.2201 9.37461 11.8753 9.37461C11.5306 9.37461 11.2493 9.09505 11.2493 8.7486V6.24969C11.2493 3.49181 9.00768 1.24846 6.2498 1.24846C3.49363 1.24846 1.25028 3.49181 1.25028 6.24969V26.2495H6.2498C6.59453 26.2495 6.87581 26.529 6.87581 26.8755C6.87581 27.2202 6.59453 27.4998 6.2498 27.4998Z" fill="#F8FCFF"/>
<path d="M9.37477 8.12476H0.62427C0.279535 8.12476 0 7.8452 0 7.50046C0 7.15401 0.279535 6.87445 0.62427 6.87445H9.37477C9.7195 6.87445 10.0008 7.15401 10.0008 7.50046C10.0008 7.8452 9.7195 8.12476 9.37477 8.12476Z" fill="#F8FCFF"/>
<path d="M6.2498 24.3745H0.62427C0.279535 24.3745 0 24.0949 0 23.7502C0 23.4038 0.279535 23.1242 0.62427 23.1242H6.2498C6.59453 23.1242 6.87581 23.4038 6.87581 23.7502C6.87581 24.0949 6.59453 24.3745 6.2498 24.3745Z" fill="#F8FCFF"/>
</svg>
