<svg width="28" height="27" viewBox="0 0 28 27" fill="none" xmlns="http://www.w3.org/2000/svg">
<path d="M20.4181 26.8323C20.2212 26.8323 20.0307 26.7337 19.9203 26.5546C15.6626 19.6356 9.88107 16.6841 0.584561 16.6841C0.262832 16.6841 0.00195312 16.4232 0.00195312 16.1014C0.00195312 15.7781 0.262832 15.5172 0.584561 15.5172C10.2076 15.5172 16.4773 18.7329 20.9143 25.9433C21.0824 26.2176 20.9975 26.5768 20.7222 26.7457C20.6278 26.8043 20.5221 26.8323 20.4181 26.8323Z" fill="#F8FCFF"/>
<path d="M27.4176 18.0828H14.5837C14.262 18.0828 14.001 17.8219 14.001 17.4985C14.001 17.1768 14.262 16.9159 14.5837 16.9159H27.4176C27.7393 16.9159 28.0002 17.1768 28.0002 17.4985C28.0002 17.8219 27.7393 18.0828 27.4176 18.0828Z" fill="#F8FCFF"/>
<path d="M27.4154 21H18.6646C18.3429 21 18.082 20.7391 18.082 20.4158C18.082 20.094 18.3429 19.8331 18.6646 19.8331H27.4154C27.7371 19.8331 27.998 20.094 27.998 20.4158C27.998 20.7391 27.7371 21 27.4154 21Z" fill="#F8FCFF"/>
<path d="M27.4165 23.915H20.9996C20.6779 23.915 20.417 23.6538 20.417 23.3316C20.417 23.0096 20.6779 22.7483 20.9996 22.7483H27.4165C27.7383 22.7483 27.9991 23.0096 27.9991 23.3316C27.9991 23.6538 27.7383 23.915 27.4165 23.915Z" fill="#F8FCFF"/>
<path d="M27.4173 26.8323H22.1672C21.8455 26.8323 21.583 26.571 21.583 26.2488C21.583 25.9268 21.8455 25.6656 22.1672 25.6656H27.4173C27.7391 25.6656 27.9999 25.9268 27.9999 26.2488C27.9999 26.571 27.7391 26.8323 27.4173 26.8323Z" fill="#F8FCFF"/>
<path d="M16.3338 26.8323C16.1593 26.8323 15.9849 26.7538 15.8712 26.6047C10.301 19.3635 0.713177 19.8261 0.617139 19.8309C0.29541 19.8501 0.0201007 19.6036 0.000893019 19.2835C-0.016714 18.9618 0.228134 18.6865 0.549862 18.6673C0.967629 18.6416 10.8419 18.1535 16.7947 25.8932C16.9916 26.1486 16.9436 26.515 16.6891 26.7113C16.5834 26.7929 16.457 26.8323 16.3338 26.8323Z" fill="#F8FCFF"/>
<path d="M11.6674 26.8323C11.5185 26.8323 11.3696 26.7753 11.2559 26.6613C7.3872 22.7939 0.651787 22.749 0.584561 22.749C0.262832 22.749 0.00195312 22.4878 0.00195312 22.1658C0.00195312 21.8429 0.262832 21.582 0.584561 21.582C0.880679 21.582 7.87379 21.63 12.0803 25.8365C12.3076 26.0644 12.3076 26.4336 12.0803 26.6613C11.9666 26.7753 11.8162 26.8323 11.6674 26.8323Z" fill="#F8FCFF"/>
<path d="M6.41726 26.8323C6.34523 26.8323 6.27161 26.8187 6.20118 26.7905C3.43047 25.6819 0.611771 25.6654 0.584561 25.6654C0.262832 25.6649 0.00195312 25.4037 0.00195312 25.0818C0.00195312 24.7598 0.262832 24.4989 0.584561 24.4989C0.70781 24.4989 3.64818 24.5125 6.63498 25.707C6.93429 25.8269 7.0799 26.1661 6.95986 26.4654C6.86862 26.6933 6.64936 26.8323 6.41726 26.8323Z" fill="#F8FCFF"/>
<path d="M3.49845 7.00793C2.8822 8.14278 2.08188 9.81225 2.08188 10.6894C2.08188 12.1732 3.26155 12.2484 3.49845 12.2484C3.73534 12.2484 4.91501 12.1732 4.91501 10.6894C4.91501 9.81225 4.11629 8.14118 3.49845 7.00793ZM3.49845 13.4153C2.60529 13.4153 0.915039 12.8455 0.915039 10.6894C0.915039 9.00393 2.78786 5.87947 3.00075 5.52893C3.21203 5.18159 3.78661 5.18159 3.99789 5.52893C4.21078 5.87947 6.08198 9.00393 6.08198 10.6894C6.08198 12.8455 4.3932 13.4153 3.49845 13.4153Z" fill="#F8FCFF"/>
<path d="M13.9994 7.00793C13.3816 8.14278 12.5829 9.81225 12.5829 10.6894C12.5829 12.1732 13.7625 12.2484 13.9994 12.2484C14.2363 12.2484 15.416 12.1732 15.416 10.6894C15.416 9.81225 14.6173 8.14118 13.9994 7.00793ZM13.9994 13.4153C13.1063 13.4153 11.416 12.8455 11.416 10.6894C11.416 9.00393 13.2872 5.87947 13.5017 5.52893C13.713 5.18159 14.286 5.18159 14.4972 5.52893C14.7117 5.87947 16.583 9.00393 16.583 10.6894C16.583 12.8455 14.8926 13.4153 13.9994 13.4153Z" fill="#F8FCFF"/>
<path d="M24.5004 7.00793C23.8826 8.14278 23.0823 9.81225 23.0823 10.6894C23.0823 12.1732 24.2635 12.2484 24.5004 12.2484C24.7357 12.2484 25.917 12.1732 25.917 10.6894C25.917 9.81225 25.1166 8.14118 24.5004 7.00793ZM24.5004 13.4153C23.6056 13.4153 21.917 12.8455 21.917 10.6894C21.917 9.00393 23.7882 5.87947 24.0011 5.52893C24.2124 5.18159 24.7869 5.18159 24.9982 5.52893C25.2111 5.87947 27.0823 9.00393 27.0823 10.6894C27.0823 12.8455 25.3936 13.4153 24.5004 13.4153Z" fill="#F8FCFF"/>
<path d="M27.4176 1.16528H0.584561C0.262832 1.16528 0.00195312 0.904373 0.00195312 0.582645C0.00195312 0.260916 0.262832 5.84126e-06 0.584561 5.84126e-06H27.4176C27.7394 5.84126e-06 28.0002 0.260916 28.0002 0.582645C28.0002 0.904373 27.7394 1.16528 27.4176 1.16528Z" fill="#F8FCFF"/>
<path d="M3.4996 3.49951C3.17787 3.49951 2.91699 3.2386 2.91699 2.91687V0.583145C2.91699 0.261416 3.17787 0.000505924 3.4996 0.000505924C3.82293 0.000505924 4.08383 0.261416 4.08383 0.583145V2.91687C4.08383 3.2386 3.82293 3.49951 3.4996 3.49951Z" fill="#F8FCFF"/>
<path d="M14.0006 3.49951C13.6788 3.49951 13.418 3.2386 13.418 2.91687V0.583145C13.418 0.261416 13.6788 0.000505924 14.0006 0.000505924C14.3223 0.000505924 14.5833 0.261416 14.5833 0.583145V2.91687C14.5833 3.2386 14.3223 3.49951 14.0006 3.49951Z" fill="#F8FCFF"/>
<path d="M24.4993 3.49951C24.1759 3.49951 23.915 3.2386 23.915 2.91687V0.583145C23.915 0.261416 24.1759 0.000505924 24.4993 0.000505924C24.821 0.000505924 25.082 0.261416 25.082 0.583145V2.91687C25.082 3.2386 24.821 3.49951 24.4993 3.49951Z" fill="#F8FCFF"/>
</svg>
