<svg width="30" height="28" viewBox="0 0 30 28" fill="none" xmlns="http://www.w3.org/2000/svg">
<path d="M21.874 27.4973C21.6648 27.4973 21.459 27.3927 21.3407 27.2007C16.7806 19.787 10.5846 16.6246 0.62421 16.6246C0.279508 16.6246 0 16.3451 0 16.0004C0 15.654 0.279508 15.3745 0.62421 15.3745C10.9344 15.3745 17.6519 18.8198 22.4057 26.5456C22.5857 26.8388 22.4949 27.2247 22.2016 27.4047C22.0987 27.4682 21.9855 27.4973 21.874 27.4973Z" fill="#F8FCFF"/>
<path d="M17.5005 27.4973C17.3136 27.4973 17.1284 27.4133 17.005 27.2538C11.0387 19.4972 0.767921 19.9911 0.661595 19.9962C0.316893 20.0099 0.0219501 19.7544 0.00308579 19.4097C-0.0174935 19.065 0.244812 18.77 0.589514 18.7495C1.0354 18.722 11.6166 18.199 17.9961 26.4924C18.2054 26.7651 18.1557 27.1578 17.8813 27.3687C17.7681 27.4562 17.6343 27.4973 17.5005 27.4973Z" fill="#F8FCFF"/>
<path d="M12.4984 27.4973C12.3389 27.4973 12.1795 27.4373 12.0578 27.3139C7.91275 23.1706 0.697953 23.1225 0.62421 23.1225C0.279508 23.1225 0 22.843 0 22.4983C0 22.1519 0.279508 21.8724 0.62421 21.8724C0.941474 21.8724 8.4358 21.9255 12.9409 26.4307C13.1845 26.6742 13.1845 27.0703 12.9409 27.3139C12.8192 27.4373 12.6596 27.4973 12.4984 27.4973Z" fill="#F8FCFF"/>
<path d="M6.87516 27.4973C6.79627 27.4973 6.71736 27.4836 6.6419 27.4528C3.67334 26.266 0.655079 26.2472 0.624211 26.2472C0.279508 26.2472 0 25.9676 0 25.6229C0 25.2765 0.279508 24.997 0.624211 24.997C0.757976 24.997 3.9066 25.0124 7.10668 26.2917C7.42737 26.4204 7.58337 26.7839 7.45475 27.1046C7.357 27.3499 7.12211 27.4973 6.87516 27.4973Z" fill="#F8FCFF"/>
<path d="M17.7563 22.3662C17.5368 22.3662 17.3224 22.2496 17.2075 22.0421C17.0412 21.7403 17.1509 21.3595 17.4527 21.1932C23.0863 18.0857 29.1863 18.7237 29.4419 18.7511C29.7849 18.7906 30.0319 19.0993 29.9941 19.4422C29.9564 19.7852 29.6425 20.0339 29.3047 19.9945C29.2447 19.9876 23.3333 19.3788 18.0582 22.2873C17.9621 22.3405 17.8575 22.3662 17.7563 22.3662Z" fill="#F8FCFF"/>
<path d="M20.1238 24.9673C19.9008 24.9673 19.6864 24.8472 19.5733 24.638C19.4086 24.3345 19.5236 23.9555 19.8271 23.7908C24.0956 21.498 29.2061 21.8564 29.4222 21.8735C29.7652 21.901 30.0225 22.2011 29.9967 22.5441C29.971 22.8888 29.6794 23.1426 29.3262 23.1203C29.2781 23.1186 24.3597 22.7739 20.4188 24.8918C20.3245 24.9433 20.2232 24.9673 20.1238 24.9673Z" fill="#F8FCFF"/>
<path d="M21.8755 27.4973C21.6268 27.4973 21.3919 27.3499 21.2941 27.1046C21.1672 26.7839 21.3233 26.4204 21.6439 26.2917C24.8423 25.0124 29.1913 24.997 29.3748 24.997C29.7195 24.997 29.999 25.2765 29.999 25.6229C29.999 25.9676 29.7195 26.2472 29.3748 26.2472C29.332 26.2472 25.0807 26.2643 22.107 27.4528C22.0315 27.4836 21.9526 27.4973 21.8755 27.4973Z" fill="#F8FCFF"/>
<path d="M24.4243 4.43628C24.2974 4.43628 24.167 4.39684 24.0572 4.31623L23.6097 3.9904C23.1055 3.6577 22.531 3.48792 21.8759 3.48792C21.2208 3.48792 20.6446 3.6577 20.1181 4.00754L19.6944 4.31623C19.4149 4.5186 19.0239 4.45857 18.8215 4.17904C18.6175 3.8995 18.6792 3.5085 18.9587 3.30614L19.4046 2.9803C20.1558 2.48297 20.979 2.23773 21.8759 2.23773C22.7711 2.23773 23.5959 2.48297 24.323 2.96487L24.793 3.30614C25.0708 3.5085 25.1326 3.8995 24.9302 4.17904C24.8067 4.3471 24.6164 4.43628 24.4243 4.43628Z" fill="#F8FCFF"/>
<path d="M22.7354 7.88672C22.5759 7.88672 22.4148 7.82669 22.293 7.70493C22.0495 7.4597 22.0495 7.06526 22.293 6.82002L23.4437 5.6693C23.6873 5.42578 24.0834 5.42578 24.3269 5.6693C24.5722 5.91454 24.5722 6.30897 24.3269 6.55421L23.1779 7.70493C23.0545 7.82669 22.8949 7.88672 22.7354 7.88672Z" fill="#F8FCFF"/>
<path d="M21.0131 7.88672C20.8519 7.88672 20.6925 7.82669 20.5707 7.70493L19.4199 6.55421C19.1764 6.30897 19.1764 5.91454 19.4199 5.6693C19.6635 5.42578 20.0596 5.42578 20.3031 5.6693L21.4539 6.82002C21.6991 7.06526 21.6991 7.4597 21.4539 7.70493C21.3321 7.82669 21.1726 7.88672 21.0131 7.88672Z" fill="#F8FCFF"/>
<path d="M23.8824 5.23585L24.7621 6.11562L28.4903 2.38734L27.6106 1.50758L23.8824 5.23585ZM24.7621 7.62305C24.6026 7.62305 24.4415 7.56302 24.3197 7.43955L22.5567 5.67831C22.3131 5.43307 22.3131 5.03864 22.5567 4.7934L27.1681 0.181933C27.2847 0.0653176 27.4443 0.000148296 27.6106 0.000148296C27.777 0.000148296 27.9347 0.0653176 28.0513 0.181933L29.8143 1.9466C30.0596 2.19012 30.0596 2.58627 29.8143 2.8298L25.2029 7.43955C25.0811 7.56302 24.9216 7.62305 24.7621 7.62305Z" fill="#F8FCFF"/>
<path d="M15.2582 2.38734L18.9866 6.11562L19.8646 5.23585L16.1381 1.50758L15.2582 2.38734ZM18.9866 7.62305C18.8254 7.62305 18.6658 7.56302 18.5441 7.43955L13.9326 2.8298C13.6891 2.58627 13.6891 2.19012 13.9326 1.9466L15.6955 0.181933C15.9305 -0.0512981 16.3455 -0.0512981 16.5787 0.181933L21.1903 4.7934C21.4355 5.03864 21.4355 5.43307 21.1903 5.67831L19.4273 7.43955C19.3055 7.56302 19.1461 7.62305 18.9866 7.62305Z" fill="#F8FCFF"/>
<path d="M23.8824 11.0114L27.6106 14.7396L28.4903 13.8599L24.7621 10.1333L23.8824 11.0114ZM27.6106 16.2488C27.4443 16.2488 27.2847 16.1819 27.1681 16.0653L22.5567 11.4538C22.3131 11.2086 22.3131 10.8141 22.5567 10.5689L24.3197 8.80767C24.5632 8.56243 24.9594 8.56243 25.2029 8.80767L29.8143 13.4174C30.0596 13.6609 30.0596 14.0571 29.8143 14.3006L28.0513 16.0653C27.9347 16.1819 27.777 16.2488 27.6106 16.2488Z" fill="#F8FCFF"/>
<path d="M15.2582 13.8599L16.1381 14.7396L19.8646 11.0114L18.9866 10.1333L15.2582 13.8599ZM16.1381 16.2488C15.9717 16.2488 15.8139 16.1819 15.6955 16.0653L13.9326 14.3006C13.6891 14.0571 13.6891 13.6609 13.9326 13.4174L18.5441 8.80767C18.7876 8.56243 19.1838 8.56243 19.4273 8.80767L21.1903 10.5689C21.4355 10.8141 21.4355 11.2086 21.1903 11.4538L16.5787 16.0653C16.4621 16.1819 16.3044 16.2488 16.1381 16.2488Z" fill="#F8FCFF"/>
<path d="M19.8623 10.76C19.7011 10.76 19.5417 10.7 19.4199 10.5782C19.1764 10.333 19.1764 9.93856 19.4199 9.69332L20.5707 8.54431C20.8142 8.29907 21.2104 8.29907 21.4539 8.54431C21.6991 8.78783 21.6991 9.18227 21.4539 9.4275L20.3031 10.5782C20.1814 10.7 20.0218 10.76 19.8623 10.76Z" fill="#F8FCFF"/>
<path d="M23.8861 10.76C23.7249 10.76 23.5655 10.7 23.4437 10.5782L22.293 9.4275C22.0495 9.18227 22.0495 8.78783 22.293 8.54431C22.5382 8.29907 22.9327 8.29907 23.1779 8.54431L24.3269 9.69332C24.5722 9.93856 24.5722 10.333 24.3269 10.5782C24.2052 10.7 24.0456 10.76 23.8861 10.76Z" fill="#F8FCFF"/>
<path d="M21.8751 7.49963C21.5304 7.49963 21.2492 7.77916 21.2492 8.12386C21.2492 8.46857 21.5304 8.7481 21.8751 8.7481C22.2198 8.7481 22.4993 8.46857 22.4993 8.12386C22.4993 7.77916 22.2198 7.49963 21.8751 7.49963ZM21.8751 9.99829C20.841 9.99829 19.999 9.15797 19.999 8.12386C19.999 7.08976 20.841 6.24944 21.8751 6.24944C22.9092 6.24944 23.7495 7.08976 23.7495 8.12386C23.7495 9.15797 22.9092 9.99829 21.8751 9.99829Z" fill="#F8FCFF"/>
<path d="M20.2718 21.2258C19.9271 21.2258 19.6475 20.9463 19.6475 20.6016V16.8853C19.6475 15.6574 20.6456 14.6593 21.8735 14.6593C23.0997 14.6593 24.0995 15.6574 24.0995 16.8853V19.7064C24.0995 20.0511 23.8199 20.3306 23.4735 20.3306C23.1288 20.3306 22.8493 20.0511 22.8493 19.7064V16.8853C22.8493 16.3468 22.412 15.9095 21.8735 15.9095C21.335 15.9095 20.8978 16.3468 20.8978 16.8853V20.6016C20.8978 20.9463 20.6182 21.2258 20.2718 21.2258Z" fill="#F8FCFF"/>
<path d="M26.8732 19.9326C26.5285 19.9326 26.249 19.6531 26.249 19.3084V16.8732C26.249 16.5268 26.5285 16.2489 26.8732 16.2489C27.2197 16.2489 27.4992 16.5268 27.4992 16.8732V19.3084C27.4992 19.6531 27.2197 19.9326 26.8732 19.9326Z" fill="#F8FCFF"/>
<path d="M16.8752 21.5857C16.5305 21.5857 16.251 21.3062 16.251 20.9615V16.873C16.251 16.5266 16.5305 16.2488 16.8752 16.2488C17.2216 16.2488 17.5011 16.5266 17.5011 16.873V20.9615C17.5011 21.3062 17.2216 21.5857 16.8752 21.5857Z" fill="#F8FCFF"/>
</svg>
